<svg data-v-423bf9ae="" xmlns="http://www.w3.org/2000/svg" viewBox="0 0 513 90" class="iconLeftSlogan"><!----><!----><!----><g data-v-423bf9ae="" id="83b33e57-5f2c-477e-9235-6543cd0a39fd" fill="#FFFFFF" transform="matrix(5.730659401617148,0,0,5.730659401617148,118.71383322607076,-23.03725020836012)"><path d="M7.94 5.04L7.94 5.04Q8.89 5.04 9.60 5.33L9.60 5.33L9.60 5.33Q10.30 5.61 10.68 6.11L10.68 6.11L10.68 6.11Q11.05 6.61 11.05 7.25L11.05 7.25L11.05 7.25Q11.05 7.62 10.95 7.92L10.95 7.92L10.95 7.92Q10.54 9.34 8.61 9.72L8.61 9.72L8.61 9.72Q9.28 9.91 9.67 10.37L9.67 10.37L9.67 10.37Q10.07 10.82 10.07 11.49L10.07 11.49L10.07 11.49Q10.07 11.80 9.95 12.22L9.95 12.22L9.95 12.22Q9.65 13.31 8.71 13.84L8.71 13.84L8.71 13.84Q7.78 14.36 6.08 14.36L6.08 14.36L0.25 14.36L0.25 14.36Q-0.04 14.36-0.20 14.27L-0.20 14.27L-0.20 14.27Q-0.36 14.17-0.36 14L-0.36 14L-0.36 14Q-0.36 13.92-0.32 13.82L-0.32 13.82L-0.32 13.82Q-0.27 13.66-0.14 13.58L-0.14 13.58L-0.14 13.58Q-0.01 13.50 0.01 13.48L0.01 13.48L0.01 13.48Q0.24 13.34 0.38 13.20L0.38 13.20L0.38 13.20Q0.52 13.05 0.62 12.71L0.62 12.71L2.32 6.68L2.32 6.68Q2.38 6.50 2.38 6.33L2.38 6.33L2.38 6.33Q2.38 6.17 2.33 6.07L2.33 6.07L2.33 6.07Q2.28 5.96 2.20 5.82L2.20 5.82L2.20 5.82Q2.07 5.64 2.07 5.53L2.07 5.53L2.07 5.53Q2.07 5.49 2.10 5.38L2.10 5.38L2.10 5.38Q2.16 5.19 2.35 5.12L2.35 5.12L2.35 5.12Q2.53 5.04 2.93 5.04L2.93 5.04L7.94 5.04ZM7.31 7.60L7.31 7.60Q7.41 7.29 7.41 7.03L7.41 7.03L7.41 7.03Q7.41 6.30 6.58 6.30L6.58 6.30L5.95 6.30L5.21 8.92L5.82 8.92L5.82 8.92Q6.41 8.92 6.75 8.63L6.75 8.63L6.75 8.63Q7.10 8.34 7.31 7.60L7.31 7.60ZM6.29 11.72L6.29 11.72Q6.38 11.38 6.38 11.10L6.38 11.10L6.38 11.10Q6.38 10.35 5.52 10.35L5.52 10.35L4.82 10.35L4.02 13.10L4.73 13.10L4.73 13.10Q5.33 13.10 5.70 12.80L5.70 12.80L5.70 12.80Q6.06 12.50 6.29 11.72L6.29 11.72ZM16.07 6.96L16.07 6.96Q17.98 6.96 18.88 7.73L18.88 7.73L18.88 7.73Q19.78 8.50 19.78 9.74L19.78 9.74L19.78 9.74Q19.78 10.16 19.67 10.68L19.67 10.68L19.67 10.68Q19.40 11.83 18.68 12.69L18.68 12.69L18.68 12.69Q17.95 13.55 16.89 14.02L16.89 14.02L16.89 14.02Q15.83 14.49 14.60 14.49L14.60 14.49L14.60 14.49Q12.66 14.49 11.72 13.71L11.72 13.71L11.72 13.71Q10.79 12.94 10.79 11.65L10.79 11.65L10.79 11.65Q10.79 11.21 10.91 10.68L10.91 10.68L10.91 10.68Q11.17 9.59 11.92 8.74L11.92 8.74L11.92 8.74Q12.67 7.90 13.75 7.43L13.75 7.43L13.75 7.43Q14.84 6.96 16.07 6.96L16.07 6.96ZM16.03 8.20L16.03 8.20Q15.74 8.20 15.41 8.73L15.41 8.73L15.41 8.73Q15.08 9.25 14.63 10.71L14.63 10.71L14.63 10.71Q14.18 12.17 14.18 12.75L14.18 12.75L14.18 12.75Q14.18 13.06 14.28 13.17L14.28 13.17L14.28 13.17Q14.38 13.27 14.55 13.27L14.55 13.27L14.55 13.27Q14.84 13.30 15.16 12.77L15.16 12.77L15.16 12.77Q15.47 12.24 15.95 10.70L15.95 10.70L15.95 10.70Q16.38 9.34 16.38 8.72L16.38 8.72L16.38 8.72Q16.38 8.43 16.29 8.32L16.29 8.32L16.29 8.32Q16.20 8.20 16.03 8.20L16.03 8.20ZM25.26 6.96L25.26 6.96Q27.16 6.96 28.06 7.73L28.06 7.73L28.06 7.73Q28.97 8.50 28.97 9.74L28.97 9.74L28.97 9.74Q28.97 10.16 28.85 10.68L28.85 10.68L28.85 10.68Q28.59 11.83 27.86 12.69L27.86 12.69L27.86 12.69Q27.13 13.55 26.08 14.02L26.08 14.02L26.08 14.02Q25.02 14.49 23.79 14.49L23.79 14.49L23.79 14.49Q21.84 14.49 20.91 13.71L20.91 13.71L20.91 13.71Q19.98 12.94 19.98 11.65L19.98 11.65L19.98 11.65Q19.98 11.21 20.09 10.68L20.09 10.68L20.09 10.68Q20.36 9.59 21.11 8.74L21.11 8.74L21.11 8.74Q21.85 7.90 22.94 7.43L22.94 7.43L22.94 7.43Q24.02 6.96 25.26 6.96L25.26 6.96ZM25.21 8.20L25.21 8.20Q24.92 8.20 24.59 8.73L24.59 8.73L24.59 8.73Q24.26 9.25 23.81 10.71L23.81 10.71L23.81 10.71Q23.37 12.17 23.37 12.75L23.37 12.75L23.37 12.75Q23.37 13.06 23.46 13.17L23.46 13.17L23.46 13.17Q23.56 13.27 23.73 13.27L23.73 13.27L23.73 13.27Q24.02 13.30 24.34 12.77L24.34 12.77L24.34 12.77Q24.65 12.24 25.13 10.70L25.13 10.70L25.13 10.70Q25.56 9.34 25.56 8.72L25.56 8.72L25.56 8.72Q25.56 8.43 25.47 8.32L25.47 8.32L25.47 8.32Q25.38 8.20 25.21 8.20L25.21 8.20ZM37.04 6.96L37.04 6.96Q37.84 6.96 38.33 7.40L38.33 7.40L38.33 7.40Q38.81 7.84 38.81 8.47L38.81 8.47L38.81 8.47Q38.81 9.14 38.40 9.52L38.40 9.52L38.40 9.52Q38.00 9.90 37.34 9.90L37.34 9.90L37.34 9.90Q36.75 9.90 36.43 9.60L36.43 9.60L36.43 9.60Q36.11 9.30 36.12 8.92L36.12 8.92L36.12 8.92Q35.98 8.89 35.88 9.03L35.88 9.03L35.88 9.03Q35.78 9.17 35.67 9.58L35.67 9.58L35.67 9.58Q35.60 9.84 35.41 10.07L35.41 10.07L35.41 10.07Q36.36 10.14 36.82 10.50L36.82 10.50L36.82 10.50Q37.28 10.86 37.28 11.44L37.28 11.44L37.28 11.44Q37.28 11.72 37.18 12.00L37.18 12.00L37.07 12.43L37.07 12.43Q37.04 12.50 37.04 12.61L37.04 12.61L37.04 12.61Q37.04 12.81 37.23 12.81L37.23 12.81L37.23 12.81Q37.39 12.81 37.51 12.66L37.51 12.66L37.51 12.66Q37.63 12.52 37.67 12.52L37.67 12.52L37.67 12.52Q37.74 12.52 37.79 12.61L37.79 12.61L37.79 12.61Q37.83 12.70 37.83 12.82L37.83 12.82L37.83 12.82Q37.84 13.23 37.58 13.62L37.58 13.62L37.58 13.62Q37.32 14 36.80 14.25L36.80 14.25L36.80 14.25Q36.27 14.49 35.53 14.49L35.53 14.49L35.53 14.49Q34.64 14.49 34.04 14.04L34.04 14.04L34.04 14.04Q33.45 13.59 33.45 12.87L33.45 12.87L33.45 12.87Q33.45 12.60 33.56 12.26L33.56 12.26L33.82 11.56L33.82 11.56Q33.89 11.31 33.89 11.20L33.89 11.20L33.89 11.20Q33.89 11.02 33.77 10.93L33.77 10.93L33.77 10.93Q33.66 10.85 33.40 10.85L33.40 10.85L33.12 10.85L32.49 12.91L32.49 12.91Q32.45 13.08 32.45 13.20L32.45 13.20L32.45 13.20Q32.45 13.38 32.52 13.49L32.52 13.49L32.52 13.49Q32.59 13.59 32.72 13.69L32.72 13.69L32.72 13.69Q32.82 13.79 32.86 13.85L32.86 13.85L32.86 13.85Q32.90 13.92 32.87 14.01L32.87 14.01L32.87 14.01Q32.80 14.20 32.59 14.28L32.59 14.28L32.59 14.28Q32.38 14.36 31.95 14.36L31.95 14.36L28.76 14.36L28.76 14.36Q28.39 14.36 28.22 14.25L28.22 14.25L28.22 14.25Q28.06 14.13 28.11 13.93L28.11 13.93L28.11 13.93Q28.17 13.76 28.41 13.64L28.41 13.64L28.41 13.64Q28.62 13.52 28.76 13.37L28.76 13.37L28.76 13.37Q28.90 13.22 28.99 12.88L28.99 12.88L31.12 5.89L31.12 5.89Q31.16 5.77 31.16 5.68L31.16 5.68L31.16 5.68Q31.16 5.53 31.09 5.43L31.09 5.43L31.09 5.43Q31.01 5.33 30.88 5.24L30.88 5.24L30.88 5.24Q30.74 5.12 30.68 5.04L30.68 5.04L30.68 5.04Q30.62 4.96 30.66 4.82L30.66 4.82L30.66 4.82Q30.74 4.49 31.54 4.26L31.54 4.26L31.54 4.26Q32.34 4.02 33.21 4.02L33.21 4.02L33.21 4.02Q34.02 4.02 34.40 4.32L34.40 4.32L34.40 4.32Q34.78 4.62 34.78 5.15L34.78 5.15L34.78 5.15Q34.78 5.47 34.68 5.77L34.68 5.77L33.46 9.74L33.92 9.74L33.92 9.74Q34.20 9.74 34.38 9.58L34.38 9.58L34.38 9.58Q34.55 9.41 34.65 9.09L34.65 9.09L34.65 9.09Q35 8.05 35.56 7.50L35.56 7.50L35.56 7.50Q36.12 6.96 37.04 6.96L37.04 6.96ZM46.20 14.45L46.20 14.45Q45.02 14.45 44.09 14.01L44.09 14.01L44.09 14.01Q43.15 13.58 42.59 12.73L42.59 12.73L42.59 12.73Q42.04 11.89 42.04 10.68L42.04 10.68L42.04 10.68Q42.04 9.84 42.34 8.86L42.34 8.86L42.34 8.86Q42.98 6.76 44.28 5.83L44.28 5.83L44.28 5.83Q45.58 4.90 47.07 4.90L47.07 4.90L47.07 4.90Q47.87 4.90 48.48 5.14L48.48 5.14L48.48 5.14Q49.10 5.38 49.62 5.82L49.62 5.82L49.99 5.53L49.99 5.53Q50.37 5.24 50.63 5.12L50.63 5.12L50.63 5.12Q50.89 5.01 51.21 5.01L51.21 5.01L51.21 5.01Q51.56 5.01 51.77 5.17L51.77 5.17L51.77 5.17Q51.98 5.32 51.98 5.61L51.98 5.61L51.98 5.61Q51.98 5.77 51.93 5.92L51.93 5.92L51.14 8.11L51.14 8.11Q51.02 8.48 50.84 8.64L50.84 8.64L50.84 8.64Q50.67 8.79 50.32 8.79L50.32 8.79L50.32 8.79Q49.95 8.79 49.72 8.53L49.72 8.53L49.72 8.53Q49.49 8.27 49.20 7.64L49.20 7.64L49.20 7.64Q48.86 6.99 48.65 6.78L48.65 6.78L48.65 6.78Q48.44 6.57 48.03 6.57L48.03 6.57L48.03 6.57Q47.46 6.57 46.93 7.27L46.93 7.27L46.93 7.27Q46.40 7.98 45.96 9.39L45.96 9.39L45.96 9.39Q45.60 10.58 45.60 11.38L45.60 11.38L45.60 11.38Q45.60 12.08 45.86 12.43L45.86 12.43L45.86 12.43Q46.13 12.77 46.58 12.77L46.58 12.77L46.58 12.77Q47.24 12.77 47.66 12.47L47.66 12.47L47.66 12.47Q48.09 12.18 48.54 11.68L48.54 11.68L48.54 11.68Q48.82 11.37 48.99 11.22L48.99 11.22L48.99 11.22Q49.17 11.07 49.36 11.07L49.36 11.07L49.36 11.07Q49.62 11.07 49.90 11.33L49.90 11.33L49.90 11.33Q50.18 11.58 50.16 11.83L50.16 11.83L50.16 11.83Q50.18 12.14 49.66 12.78L49.66 12.78L49.66 12.78Q49.15 13.43 48.25 13.94L48.25 13.94L48.25 13.94Q47.35 14.45 46.20 14.45L46.20 14.45ZM56.01 6.96L56.01 6.96Q57.62 6.96 58.59 7.55L58.59 7.55L58.59 7.55Q59.56 8.15 59.56 9.37L59.56 9.37L59.56 9.37Q59.56 9.83 59.39 10.42L59.39 10.42L58.81 12.35L58.81 12.35Q58.80 12.40 58.80 12.49L58.80 12.49L58.80 12.49Q58.80 12.71 58.98 12.71L58.98 12.71L58.98 12.71Q59.15 12.71 59.27 12.57L59.27 12.57L59.27 12.57Q59.39 12.42 59.43 12.42L59.43 12.42L59.43 12.42Q59.50 12.42 59.55 12.52L59.55 12.52L59.55 12.52Q59.60 12.61 59.60 12.74L59.60 12.74L59.60 12.74Q59.61 13.12 59.31 13.51L59.31 13.51L59.31 13.51Q59.01 13.90 58.51 14.15L58.51 14.15L58.51 14.15Q58.00 14.41 57.40 14.41L57.40 14.41L57.40 14.41Q56.67 14.41 56.15 14.14L56.15 14.14L56.15 14.14Q55.64 13.87 55.44 13.36L55.44 13.36L55.44 13.36Q55.02 13.86 54.45 14.13L54.45 14.13L54.45 14.13Q53.87 14.41 53.21 14.41L53.21 14.41L53.21 14.41Q52.47 14.41 51.97 14.12L51.97 14.12L51.97 14.12Q51.46 13.83 51.22 13.38L51.22 13.38L51.22 13.38Q50.97 12.92 50.97 12.42L50.97 12.42L50.97 12.42Q50.97 12.19 51.02 11.98L51.02 11.98L51.02 11.98Q51.24 11.02 51.99 10.53L51.99 10.53L51.99 10.53Q52.74 10.04 53.77 10.04L53.77 10.04L53.77 10.04Q54.94 10.04 56.06 10.40L56.06 10.40L56.41 9.48L56.41 9.48Q56.59 8.89 56.59 8.57L56.59 8.57L56.59 8.57Q56.57 8.23 56.36 8.06L56.36 8.06L56.36 8.06Q56.15 7.90 55.72 7.90L55.72 7.90L55.72 7.90Q55.80 8.12 55.80 8.36L55.80 8.36L55.80 8.36Q55.80 8.88 55.41 9.25L55.41 9.25L55.41 9.25Q55.02 9.63 54.29 9.63L54.29 9.63L54.29 9.63Q53.61 9.63 53.22 9.33L53.22 9.33L53.22 9.33Q52.84 9.03 52.84 8.58L52.84 8.58L52.84 8.58Q52.84 7.88 53.62 7.42L53.62 7.42L53.62 7.42Q54.40 6.96 56.01 6.96L56.01 6.96ZM55.23 11.20L55.23 11.20Q54.84 11.20 54.59 11.50L54.59 11.50L54.59 11.50Q54.35 11.80 54.35 12.15L54.35 12.15L54.35 12.15Q54.35 12.38 54.45 12.52L54.45 12.52L54.45 12.52Q54.56 12.66 54.75 12.66L54.75 12.66L54.75 12.66Q54.94 12.66 55.15 12.51L55.15 12.51L55.15 12.51Q55.37 12.36 55.47 12.07L55.47 12.07L55.76 11.24L55.76 11.24Q55.52 11.20 55.23 11.20L55.23 11.20ZM67.05 6.96L67.05 6.96Q67.83 6.96 68.30 7.43L68.30 7.43L68.30 7.43Q68.77 7.91 68.77 8.61L68.77 8.61L68.77 8.61Q68.77 8.88 68.71 9.10L68.71 9.10L68.71 9.10Q68.57 9.67 68.18 9.98L68.18 9.98L68.18 9.98Q67.79 10.29 67.24 10.29L67.24 10.29L67.24 10.29Q66.71 10.29 66.44 10.04L66.44 10.04L66.44 10.04Q66.16 9.79 65.95 9.37L65.95 9.37L65.95 9.37Q65.84 9.13 65.74 9.02L65.74 9.02L65.74 9.02Q65.65 8.90 65.52 8.90L65.52 8.90L65.52 8.90Q65.38 8.90 65.27 9.02L65.27 9.02L65.27 9.02Q65.17 9.13 65.09 9.41L65.09 9.41L64.01 12.91L64.01 12.91Q63.98 12.98 63.98 13.12L63.98 13.12L63.98 13.12Q63.98 13.30 64.08 13.42L64.08 13.42L64.08 13.42Q64.19 13.54 64.37 13.65L64.37 13.65L64.37 13.65Q64.54 13.76 64.60 13.83L64.60 13.83L64.60 13.83Q64.65 13.90 64.64 14.01L64.64 14.01L64.64 14.01Q64.61 14.20 64.44 14.28L64.44 14.28L64.44 14.28Q64.26 14.36 63.84 14.36L63.84 14.36L60.26 14.36L60.26 14.36Q59.89 14.36 59.73 14.25L59.73 14.25L59.73 14.25Q59.57 14.13 59.61 13.93L59.61 13.93L59.61 13.93Q59.67 13.76 59.91 13.64L59.91 13.64L59.91 13.64Q60.12 13.52 60.26 13.37L60.26 13.37L60.26 13.37Q60.40 13.22 60.49 12.88L60.49 12.88L61.74 8.83L61.74 8.83Q61.77 8.76 61.77 8.64L61.77 8.64L61.77 8.64Q61.77 8.48 61.70 8.40L61.70 8.40L61.70 8.40Q61.64 8.32 61.50 8.19L61.50 8.19L61.50 8.19Q61.36 8.08 61.31 7.99L61.31 7.99L61.31 7.99Q61.25 7.91 61.29 7.77L61.29 7.77L61.29 7.77Q61.38 7.45 62.17 7.20L62.17 7.20L62.17 7.20Q62.97 6.96 63.84 6.96L63.84 6.96L63.84 6.96Q64.41 6.96 64.79 7.22L64.79 7.22L64.79 7.22Q65.17 7.48 65.28 7.95L65.28 7.95L65.28 7.95Q65.95 6.96 67.05 6.96L67.05 6.96Z"></path></g><!----><g data-v-423bf9ae="" id="729c4b2f-d468-4d4f-b3ab-d99875eb2598" transform="matrix(3.02033690133878,0,0,3.02033690133878,0.6746095785795205,-6.44676146975133)" stroke="none" fill="#81E291"><circle cx="25.044" cy="25.043" r="6.956"></circle><circle cx="6.956" cy="25.043" r="6.956"></circle><path d="M.172 2.201H13.74v13.568H.172zM18.432 2.201H32v13.568H18.432z"></path></g><!----><g data-v-423bf9ae="" id="fb50d717-656c-4ee4-98f3-eeaddcd91d25" fill="#FFFFFF" transform="matrix(0.8711849350203321,0,0,0.8711849350203321,116.40684930761549,57.125088716253416)"><path d="M0.28 3.81L0.28 3.81L0.28 3.81Q0.28 3.65 0.44 3.61L0.44 3.61L0.44 3.61Q0.60 3.57 1.15 3.57L1.15 3.57L1.15 3.57Q1.23 3.57 1.53 3.58L1.53 3.58L1.53 3.58Q1.83 3.60 1.96 3.60L1.96 3.60L1.96 3.60Q2.11 3.60 2.53 3.59L2.53 3.59L2.53 3.59Q2.94 3.58 3.15 3.58L3.15 3.58L3.15 3.58Q3.85 3.58 3.85 3.75L3.85 3.75L3.85 3.75Q3.85 3.91 3.56 4.01L3.56 4.01L3.56 4.01Q3.26 4.12 3.26 4.24L3.26 4.24L3.26 4.24Q3.26 4.38 3.35 4.61L3.35 4.61L3.35 4.61Q3.44 4.83 3.54 4.97L3.54 4.97L3.54 4.97Q3.63 5.11 3.81 5.38L3.81 5.38L3.81 5.38Q3.99 5.64 4.02 5.70L4.02 5.70L4.02 5.70Q4.49 6.45 5.00 7.14L5.00 7.14L5.00 7.14Q5.52 7.83 5.59 7.83L5.59 7.83L5.59 7.83Q5.67 7.83 5.80 7.66L5.80 7.66L5.80 7.66Q5.92 7.50 6.15 7.13L6.15 7.13L6.15 7.13Q6.37 6.75 6.52 6.52L6.52 6.52L6.52 6.52Q6.57 6.45 6.73 6.22L6.73 6.22L6.73 6.22Q6.89 5.98 6.95 5.88L6.95 5.88L6.95 5.88Q7.01 5.78 7.14 5.58L7.14 5.58L7.14 5.58Q7.27 5.38 7.32 5.27L7.32 5.27L7.32 5.27Q7.38 5.17 7.46 5.02L7.46 5.02L7.46 5.02Q7.53 4.87 7.56 4.77L7.56 4.77L7.56 4.77Q7.59 4.68 7.59 4.59L7.59 4.59L7.59 4.59Q7.59 4.14 7.11 4.03L7.11 4.03L7.11 4.03Q7.06 4.02 6.95 4.00L6.95 4.00L6.95 4.00Q6.85 3.99 6.80 3.98L6.80 3.98L6.80 3.98Q6.75 3.96 6.68 3.93L6.68 3.93L6.68 3.93Q6.61 3.91 6.58 3.86L6.58 3.86L6.58 3.86Q6.55 3.81 6.55 3.74L6.55 3.74L6.55 3.74Q6.55 3.57 6.94 3.57L6.94 3.57L6.94 3.57Q7.01 3.57 7.20 3.58L7.20 3.58L7.20 3.58Q7.39 3.58 7.52 3.58L7.52 3.58L7.52 3.58Q7.84 3.58 8.29 3.59L8.29 3.59L8.29 3.59Q8.75 3.60 9.00 3.60L9.00 3.60L9.00 3.60Q9.69 3.60 9.69 3.81L9.69 3.81L9.69 3.81Q9.69 3.86 9.60 3.91L9.60 3.91L9.60 3.91Q9.52 3.95 9.37 4.02L9.37 4.02L9.37 4.02Q9.21 4.09 9.09 4.19L9.09 4.19L9.09 4.19Q8.51 4.63 7.40 6.31L7.40 6.31L7.40 6.31Q6.29 7.99 6.13 8.19L6.13 8.19L6.13 8.19Q5.91 8.47 5.85 8.81L5.85 8.81L5.85 8.81Q5.80 9.14 5.80 9.95L5.80 9.95L5.80 9.95Q5.80 10.14 5.80 10.73L5.80 10.73L5.80 10.73Q5.81 11.33 5.81 11.58L5.81 11.58L5.81 11.91L5.81 11.91Q5.81 12.38 5.97 12.64L5.97 12.64L5.97 12.64Q6.13 12.91 6.27 12.96L6.27 12.96L6.27 12.96Q6.41 13.01 6.55 13.01L6.55 13.01L6.55 13.01Q6.58 13.01 6.69 13.01L6.69 13.01L6.69 13.01Q6.80 13.02 6.83 13.02L6.83 13.02L6.83 13.02Q6.93 13.02 6.99 13.08L6.99 13.08L6.99 13.08Q7.04 13.15 7.04 13.22L7.04 13.22L7.04 13.22Q7.04 13.36 6.97 13.40L6.97 13.40L6.97 13.40Q6.90 13.44 6.71 13.44L6.71 13.44L6.71 13.44Q6.64 13.44 6.10 13.43L6.10 13.43L6.10 13.43Q5.56 13.43 5.31 13.43L5.31 13.43L5.31 13.43Q4.82 13.43 4.41 13.45L4.41 13.45L4.41 13.45Q4.00 13.48 3.77 13.48L3.77 13.48L3.77 13.48Q3.37 13.48 3.37 13.33L3.37 13.33L3.37 13.33Q3.37 13.20 3.45 13.15L3.45 13.15L3.45 13.15Q3.53 13.10 3.71 13.09L3.71 13.09L3.71 13.09Q3.89 13.08 3.98 13.05L3.98 13.05L3.98 13.05Q4.56 12.87 4.56 12.19L4.56 12.19L4.56 12.19Q4.56 12.11 4.57 11.92L4.57 11.92L4.57 11.92Q4.58 11.73 4.58 11.12L4.58 11.12L4.58 11.12Q4.59 10.50 4.59 9.35L4.59 9.35L4.59 9.35Q4.59 9.13 4.56 8.97L4.56 8.97L4.56 8.97Q4.52 8.81 4.47 8.65L4.47 8.65L4.47 8.65Q4.42 8.50 4.24 8.20L4.24 8.20L4.24 8.20Q4.05 7.91 3.86 7.64L3.86 7.64L3.86 7.64Q3.68 7.36 3.24 6.72L3.24 6.72L3.24 6.72Q2.80 6.08 2.39 5.46L2.39 5.46L2.39 5.46Q1.96 4.80 1.61 4.46L1.61 4.46L1.61 4.46Q1.26 4.12 1.07 4.05L1.07 4.05L1.07 4.05Q0.88 3.99 0.63 3.99L0.63 3.99L0.63 3.99Q0.28 3.99 0.28 3.81ZM17.18 8.69L17.18 8.69L17.18 8.69Q17.18 6.34 18.59 4.84L18.59 4.84L18.59 4.84Q20.01 3.33 22.60 3.33L22.60 3.33L22.60 3.33Q23.80 3.33 24.77 3.68L24.77 3.68L24.77 3.68Q25.73 4.03 26.29 4.54L26.29 4.54L26.29 4.54Q26.85 5.05 27.23 5.71L27.23 5.71L27.23 5.71Q27.61 6.37 27.75 6.92L27.75 6.92L27.75 6.92Q27.89 7.48 27.89 7.95L27.89 7.95L27.89 7.95Q27.89 9.86 27.15 11.16L27.15 11.16L27.15 11.16Q26.40 12.47 25.19 13.07L25.19 13.07L25.19 13.07Q23.98 13.66 22.40 13.66L22.40 13.66L22.40 13.66Q20.73 13.66 19.52 12.94L19.52 12.94L19.52 12.94Q18.31 12.21 17.74 11.10L17.74 11.10L17.74 11.10Q17.18 10.00 17.18 8.69ZM18.41 7.98L18.41 7.98L18.41 7.98Q18.41 8.54 18.56 9.19L18.56 9.19L18.56 9.19Q18.72 9.84 19.07 10.54L19.07 10.54L19.07 10.54Q19.42 11.23 19.91 11.78L19.91 11.78L19.91 11.78Q20.41 12.33 21.17 12.69L21.17 12.69L21.17 12.69Q21.94 13.05 22.85 13.05L22.85 13.05L22.85 13.05Q23.32 13.05 23.85 12.90L23.85 12.90L23.85 12.90Q24.37 12.75 24.89 12.45L24.89 12.45L24.89 12.45Q25.41 12.14 25.82 11.70L25.82 11.70L25.82 11.70Q26.22 11.26 26.48 10.62L26.48 10.62L26.48 10.62Q26.74 9.98 26.74 9.24L26.74 9.24L26.74 9.24Q26.74 6.71 25.41 5.30L25.41 5.30L25.41 5.30Q24.08 3.89 22.12 3.89L22.12 3.89L22.12 3.89Q20.58 3.89 19.49 4.93L19.49 4.93L19.49 4.93Q18.41 5.96 18.41 7.98ZM35.78 3.68L35.78 3.68L35.78 3.68Q35.78 3.61 35.80 3.58L35.80 3.58L35.80 3.58Q35.81 3.56 35.88 3.53L35.88 3.53L35.88 3.53Q35.95 3.50 36.11 3.50L36.11 3.50L36.11 3.50Q36.26 3.50 36.75 3.53L36.75 3.53L36.75 3.53Q37.24 3.56 37.69 3.56L37.69 3.56L37.69 3.56Q37.97 3.56 38.20 3.54L38.20 3.54L38.20 3.54Q38.43 3.53 39.00 3.53L39.00 3.53L39.00 3.53Q39.30 3.53 39.30 3.72L39.30 3.72L39.30 3.72Q39.30 3.85 39.20 3.88L39.20 3.88L39.20 3.88Q39.10 3.91 38.95 3.92L38.95 3.92L38.95 3.92Q38.81 3.93 38.66 4.02L38.66 4.02L38.66 4.02Q38.51 4.10 38.42 4.43L38.42 4.43L38.42 4.43Q38.32 4.76 38.32 5.32L38.32 5.32L38.32 5.71L38.32 5.71Q38.32 6.37 38.31 7.37L38.31 7.37L38.31 7.37Q38.30 8.37 38.30 8.74L38.30 8.74L38.30 8.74Q38.30 9.17 38.31 9.39L38.31 9.39L38.31 9.39Q38.32 9.62 38.35 10.04L38.35 10.04L38.35 10.04Q38.37 10.47 38.42 10.72L38.42 10.72L38.42 10.72Q38.47 10.96 38.58 11.32L38.58 11.32L38.58 11.32Q38.70 11.68 38.86 11.89L38.86 11.89L38.86 11.89Q39.02 12.10 39.26 12.35L39.26 12.35L39.26 12.35Q39.51 12.60 39.83 12.73L39.83 12.73L39.83 12.73Q40.15 12.87 40.59 12.96L40.59 12.96L40.59 12.96Q41.02 13.05 41.55 13.05L41.55 13.05L41.55 13.05Q42 13.05 42.25 13.03L42.25 13.03L42.25 13.03Q42.50 13.02 42.95 12.94L42.95 12.94L42.95 12.94Q43.39 12.87 43.64 12.72L43.64 12.72L43.64 12.72Q43.90 12.57 44.23 12.27L44.23 12.27L44.23 12.27Q44.56 11.97 44.74 11.54L44.74 11.54L44.74 11.54Q44.93 11.10 45.05 10.43L45.05 10.43L45.05 10.43Q45.18 9.76 45.18 8.90L45.18 8.90L45.18 8.90Q45.18 7.49 45.17 6.75L45.17 6.75L45.17 6.75Q45.16 6.01 45.16 5.94L45.16 5.94L45.16 5.94Q45.16 5.45 45.14 5.17L45.14 5.17L45.14 5.17Q45.12 4.89 45.00 4.55L45.00 4.55L45.00 4.55Q44.88 4.21 44.66 4.06L44.66 4.06L44.66 4.06Q44.52 3.96 44.30 3.93L44.30 3.93L44.30 3.93Q44.07 3.89 43.93 3.87L43.93 3.87L43.93 3.87Q43.79 3.85 43.79 3.75L43.79 3.75L43.79 3.75Q43.79 3.53 44.07 3.53L44.07 3.53L44.07 3.53Q44.16 3.53 44.62 3.54L44.62 3.54L44.62 3.54Q45.08 3.56 45.15 3.56L45.15 3.56L45.15 3.56Q45.49 3.56 45.86 3.54L45.86 3.54L45.86 3.54Q46.24 3.51 46.34 3.51L46.34 3.51L46.34 3.51Q46.63 3.51 46.63 3.70L46.63 3.70L46.63 3.70Q46.63 3.81 46.33 3.98L46.33 3.98L46.33 3.98Q46.03 4.16 45.96 4.30L45.96 4.30L45.96 4.30Q45.81 4.59 45.81 5.22L45.81 5.22L45.81 5.22Q45.81 5.32 45.81 5.62L45.81 5.62L45.81 5.62Q45.82 5.92 45.82 6.16L45.82 6.16L45.82 6.16Q45.82 8.85 45.60 10.28L45.60 10.28L45.60 10.28Q45.37 11.70 44.92 12.36L44.92 12.36L44.92 12.36Q44.46 13.01 43.55 13.40L43.55 13.40L43.55 13.40Q42.81 13.71 41.55 13.71L41.55 13.71L41.55 13.71Q39.21 13.71 38.23 12.81L38.23 12.81L38.23 12.81Q37.46 12.10 37.28 11.09L37.28 11.09L37.28 11.09Q37.10 10.09 37.10 7.64L37.10 7.64L37.10 7.41L37.10 7.41Q37.10 6.86 37.11 6.20L37.11 6.20L37.11 6.20Q37.13 5.54 37.13 5.39L37.13 5.39L37.13 5.39Q37.13 4.62 36.95 4.33L36.95 4.33L36.95 4.33Q36.76 4.05 36.09 3.95L36.09 3.95L36.09 3.95Q35.78 3.91 35.78 3.68ZM64.18 3.71L64.18 3.71L64.18 3.71Q64.18 3.51 64.55 3.51L64.55 3.51L64.55 3.51Q64.64 3.51 65.09 3.54L65.09 3.54L65.09 3.54Q65.55 3.56 66.09 3.56L66.09 3.56L66.09 3.56Q66.49 3.56 66.88 3.54L66.88 3.54L66.88 3.54Q67.27 3.51 67.30 3.51L67.30 3.51L67.30 3.51Q67.42 3.51 67.46 3.55L67.46 3.55L67.46 3.55Q67.49 3.58 67.49 3.68L67.49 3.68L67.49 3.68Q67.49 3.77 67.19 3.92L67.19 3.92L67.19 3.92Q66.89 4.07 66.89 4.34L66.89 4.34L66.89 4.34Q66.89 4.47 66.95 4.65L66.95 4.65L66.95 4.65Q67.00 4.83 67.17 5.22L67.17 5.22L67.17 5.22Q67.34 5.61 67.53 6.03L67.53 6.03L67.53 6.03Q67.72 6.45 68.11 7.33L68.11 7.33L68.11 7.33Q68.50 8.20 68.88 9.07L68.88 9.07L68.88 9.07Q68.98 9.30 69.17 9.74L69.17 9.74L69.17 9.74Q69.36 10.18 69.47 10.46L69.47 10.46L69.47 10.46Q69.59 10.74 69.73 11.05L69.73 11.05L69.73 11.05Q69.87 11.37 69.97 11.52L69.97 11.52L69.97 11.52Q70.06 11.68 70.10 11.68L70.10 11.68L70.10 11.68Q70.15 11.68 70.55 10.81L70.55 10.81L70.55 10.81Q70.94 9.94 71.25 9.17L71.25 9.17L71.25 9.17Q71.30 9.04 71.38 8.89L71.38 8.89L71.38 8.89Q71.46 8.74 71.49 8.63L71.49 8.63L71.49 8.63Q71.53 8.53 71.53 8.41L71.53 8.41L71.53 8.41Q71.53 8.25 70.69 6.36L70.69 6.36L70.69 6.36Q69.85 4.48 69.61 4.21L69.61 4.21L69.61 4.21Q69.55 4.14 69.50 4.10L69.50 4.10L69.50 4.10Q69.44 4.06 69.39 4.02L69.39 4.02L69.39 4.02Q69.34 3.99 69.31 3.97L69.31 3.97L69.31 3.97Q69.27 3.95 69.22 3.94L69.22 3.94L69.22 3.94Q69.16 3.93 69.14 3.93L69.14 3.93L69.14 3.93Q69.12 3.93 69.06 3.93L69.06 3.93L69.06 3.93Q68.99 3.92 68.98 3.92L68.98 3.92L68.98 3.92Q68.59 3.88 68.50 3.84L68.50 3.84L68.50 3.84Q68.42 3.81 68.42 3.70L68.42 3.70L68.42 3.70Q68.42 3.50 68.82 3.50L68.82 3.50L68.82 3.50Q68.91 3.50 69.37 3.53L69.37 3.53L69.37 3.53Q69.83 3.56 70.36 3.56L70.36 3.56L70.36 3.56Q70.39 3.56 70.74 3.53L70.74 3.53L70.74 3.53Q71.09 3.50 71.29 3.50L71.29 3.50L71.29 3.50Q71.71 3.50 71.71 3.61L71.71 3.61L71.71 3.61Q71.71 3.70 71.55 3.78L71.55 3.78L71.55 3.78Q71.40 3.86 71.25 4.00L71.25 4.00L71.25 4.00Q71.11 4.13 71.11 4.33L71.11 4.33L71.11 4.33Q71.11 4.59 71.54 5.57L71.54 5.57L71.54 5.57Q71.57 5.63 71.73 6.03L71.73 6.03L71.73 6.03Q71.89 6.44 72.02 6.71L72.02 6.71L72.02 6.71Q72.14 6.99 72.20 6.99L72.20 6.99L72.20 6.99Q72.31 6.99 72.76 5.76L72.76 5.76L72.76 5.76Q73.21 4.54 73.21 4.31L73.21 4.31L73.21 4.31Q73.21 4.06 73.00 3.96L73.00 3.96L73.00 3.96Q72.79 3.85 72.58 3.80L72.58 3.80L72.58 3.80Q72.37 3.75 72.37 3.64L72.37 3.64L72.37 3.64Q72.37 3.49 72.67 3.49L72.67 3.49L72.67 3.49Q72.76 3.49 73.09 3.50L73.09 3.50L73.09 3.50Q73.43 3.51 73.57 3.51L73.57 3.51L73.81 3.51L73.81 3.51Q74.00 3.51 74.55 3.47L74.55 3.47L74.68 3.47L74.68 3.47Q74.86 3.47 74.86 3.61L74.86 3.61L74.86 3.61Q74.86 3.75 74.59 3.84L74.59 3.84L74.59 3.84Q74.33 3.92 74.23 4.02L74.23 4.02L74.23 4.02Q74.00 4.24 73.84 4.66L73.84 4.66L73.84 4.66Q73.54 5.38 73.14 6.33L73.14 6.33L73.14 6.33Q72.72 7.31 72.65 7.50L72.65 7.50L72.65 7.50Q72.58 7.70 72.58 7.85L72.58 7.85L72.58 7.85Q72.58 7.97 73.43 9.87L73.43 9.87L73.43 9.87Q74.28 11.77 74.44 11.77L74.44 11.77L74.44 11.77Q74.61 11.77 76.07 8.24L76.07 8.24L76.07 8.24Q77.53 4.70 77.53 4.35L77.53 4.35L77.53 4.35Q77.53 4.13 77.37 4.01L77.37 4.01L77.37 4.01Q77.21 3.89 77.01 3.87L77.01 3.87L77.01 3.87Q76.82 3.85 76.66 3.80L76.66 3.80L76.66 3.80Q76.50 3.75 76.50 3.64L76.50 3.64L76.50 3.64Q76.50 3.54 76.54 3.52L76.54 3.52L76.54 3.52Q76.58 3.50 76.76 3.50L76.76 3.50L76.76 3.50Q76.80 3.50 77.08 3.51L77.08 3.51L77.08 3.51Q77.36 3.51 77.64 3.51L77.64 3.51L77.64 3.51Q77.90 3.51 78.21 3.50L78.21 3.50L78.21 3.50Q78.53 3.49 78.89 3.49L78.89 3.49L78.89 3.49Q79.17 3.49 79.17 3.68L79.17 3.68L79.17 3.68Q79.17 3.78 79.09 3.84L79.09 3.84L79.09 3.84Q79.02 3.89 78.86 3.98L78.86 3.98L78.86 3.98Q78.71 4.06 78.60 4.17L78.60 4.17L78.60 4.17Q78.53 4.24 78.48 4.31L78.48 4.31L78.48 4.31Q78.43 4.38 78.37 4.49L78.37 4.49L78.37 4.49Q78.32 4.59 78.28 4.66L78.28 4.66L78.28 4.66Q78.25 4.73 78.17 4.91L78.17 4.91L78.17 4.91Q78.09 5.08 78.05 5.18L78.05 5.18L78.05 5.18Q76.97 7.59 75.64 10.58L75.64 10.58L75.64 10.58Q74.58 13.01 74.38 13.41L74.38 13.41L74.38 13.41Q74.19 13.82 74.07 13.82L74.07 13.82L74.07 13.82Q74.00 13.82 73.91 13.64L73.91 13.64L73.91 13.64Q73.81 13.47 73.63 13.05L73.63 13.05L73.63 13.05Q73.46 12.64 73.43 12.57L73.43 12.57L73.43 12.57Q73.29 12.26 73.06 11.72L73.06 11.72L73.06 11.72Q72.83 11.17 72.67 10.79L72.67 10.79L72.67 10.79Q72.51 10.42 72.34 10.02L72.34 10.02L72.34 10.02Q72.17 9.63 72.06 9.43L72.06 9.43L72.06 9.43Q71.95 9.23 71.90 9.23L71.90 9.23L71.90 9.23Q71.76 9.23 70.96 11.16L70.96 11.16L70.96 11.16Q70.15 13.09 70.10 13.31L70.10 13.31L70.10 13.31Q70.08 13.37 70.06 13.43L70.06 13.43L70.06 13.43Q70.04 13.48 70.03 13.52L70.03 13.52L70.03 13.52Q70.01 13.57 70 13.61L70 13.61L70 13.61Q69.99 13.65 69.97 13.68L69.97 13.68L69.97 13.68Q69.96 13.71 69.95 13.73L69.95 13.73L69.95 13.73Q69.94 13.76 69.93 13.78L69.93 13.78L69.93 13.78Q69.92 13.80 69.90 13.82L69.90 13.82L69.90 13.82Q69.89 13.83 69.87 13.84L69.87 13.84L69.87 13.84Q69.86 13.85 69.85 13.85L69.85 13.85L69.85 13.85Q69.83 13.86 69.80 13.86L69.80 13.86L69.80 13.86Q69.68 13.86 69.50 13.46L69.50 13.46L69.50 13.46Q69.31 13.06 68.84 11.89L68.84 11.89L68.84 11.89Q68.36 10.72 67.87 9.65L67.87 9.65L67.87 9.65Q67.06 7.87 66.15 5.63L66.15 5.63L66.15 5.63Q65.88 4.96 65.58 4.57L65.58 4.57L65.58 4.57Q65.27 4.19 65.03 4.09L65.03 4.09L65.03 4.09Q64.79 3.99 64.60 3.98L64.60 3.98L64.60 3.98Q64.40 3.96 64.29 3.92L64.29 3.92L64.29 3.92Q64.18 3.88 64.18 3.71ZM84.74 13.33L84.74 13.33L84.74 13.33Q84.74 13.13 84.95 13.06L84.95 13.06L84.95 13.06Q85.40 12.89 85.74 12.31L85.74 12.31L85.74 12.31Q86.07 11.73 87.40 8.83L87.40 8.83L87.40 8.83Q88.77 5.87 89.82 3.63L89.82 3.63L89.82 3.63Q89.92 3.42 90.00 3.36L90.00 3.36L90.00 3.36Q90.08 3.30 90.24 3.30L90.24 3.30L90.24 3.30Q90.37 3.30 90.41 3.36L90.41 3.36L90.41 3.36Q90.45 3.42 90.59 3.82L90.59 3.82L90.59 3.82Q90.68 4.06 90.74 4.23L90.74 4.23L90.74 4.23Q90.80 4.40 90.94 4.77L90.94 4.77L90.94 4.77Q91.08 5.15 91.25 5.56L91.25 5.56L91.25 5.56Q91.70 6.66 92.80 9.22L92.80 9.22L92.80 9.22Q93.90 11.77 94.00 11.98L94.00 11.98L94.00 11.98Q94.23 12.46 94.53 12.71L94.53 12.71L94.53 12.71Q94.82 12.95 95.04 12.97L95.04 12.97L95.04 12.97Q95.26 12.99 95.40 13.04L95.40 13.04L95.40 13.04Q95.55 13.09 95.55 13.26L95.55 13.26L95.55 13.26Q95.55 13.47 95.17 13.47L95.17 13.47L95.17 13.47Q95.02 13.47 94.57 13.43L94.57 13.43L94.57 13.43Q94.12 13.38 93.91 13.38L93.91 13.38L93.91 13.38Q93.65 13.38 93.23 13.41L93.23 13.41L93.23 13.41Q92.81 13.44 92.61 13.44L92.61 13.44L92.61 13.44Q92.18 13.44 92.06 13.40L92.06 13.40L92.06 13.40Q91.94 13.37 91.94 13.24L91.94 13.24L91.94 13.24Q91.94 13.15 92.05 13.08L92.05 13.08L92.05 13.08Q92.16 13.02 92.29 13.00L92.29 13.00L92.29 13.00Q92.41 12.98 92.53 12.87L92.53 12.87L92.53 12.87Q92.64 12.77 92.64 12.59L92.64 12.59L92.64 12.59Q92.64 12.28 92.29 11.33L92.29 11.33L92.29 11.33Q91.94 10.37 91.70 9.93L91.70 9.93L91.70 9.93Q91.57 9.69 91.13 9.69L91.13 9.69L91.13 9.69Q91.06 9.69 90.51 9.70L90.51 9.70L90.51 9.70Q89.96 9.72 89.43 9.72L89.43 9.72L88.69 9.72L88.69 9.72Q88.06 9.72 87.90 9.79L87.90 9.79L87.90 9.79Q87.74 9.86 87.61 10.12L87.61 10.12L87.61 10.12Q87.53 10.30 87.33 10.70L87.33 10.70L87.33 10.70Q87.14 11.10 87.07 11.26L87.07 11.26L87.07 11.26Q87.00 11.41 86.89 11.65L86.89 11.65L86.89 11.65Q86.79 11.90 86.75 12.05L86.75 12.05L86.75 12.05Q86.72 12.19 86.72 12.31L86.72 12.31L86.72 12.31Q86.72 12.63 86.88 12.80L86.88 12.80L86.88 12.80Q87.04 12.96 87.23 12.98L87.23 12.98L87.23 12.98Q87.43 13.01 87.59 13.06L87.59 13.06L87.59 13.06Q87.75 13.12 87.75 13.26L87.75 13.26L87.75 13.26Q87.75 13.36 87.71 13.40L87.71 13.40L87.71 13.40Q87.67 13.45 87.51 13.45L87.51 13.45L87.51 13.45Q87.43 13.45 87.03 13.45L87.03 13.45L87.03 13.45Q86.63 13.44 86.35 13.44L86.35 13.44L86.35 13.44Q86.04 13.44 85.66 13.47L85.66 13.47L85.66 13.47Q85.27 13.50 85.15 13.50L85.15 13.50L85.15 13.50Q84.74 13.50 84.74 13.33ZM88.26 8.71L88.26 8.71L88.26 8.71Q88.26 8.89 88.38 8.93L88.38 8.93L88.38 8.93Q88.51 8.97 88.97 8.97L88.97 8.97L89.40 8.97L90.73 8.96L90.73 8.96Q91.28 8.96 91.28 8.74L91.28 8.74L91.28 8.74Q91.28 8.55 90.59 7.01L90.59 7.01L90.59 7.01Q89.91 5.46 89.73 5.46L89.73 5.46L89.73 5.46Q89.60 5.46 88.93 7.01L88.93 7.01L88.93 7.01Q88.26 8.55 88.26 8.71ZM103.11 3.77L103.11 3.77L103.11 3.77Q103.11 3.68 103.21 3.60L103.21 3.60L103.21 3.60Q103.31 3.53 103.46 3.53L103.46 3.53L103.46 3.53Q103.54 3.53 103.74 3.54L103.74 3.54L103.74 3.54Q103.94 3.54 103.99 3.54L103.99 3.54L103.99 3.54Q104.20 3.54 104.38 3.53L104.38 3.53L104.38 3.53Q104.57 3.51 104.68 3.51L104.68 3.51L104.68 3.51Q104.80 3.51 104.97 3.59L104.97 3.59L104.97 3.59Q105.14 3.67 105.17 3.75L105.17 3.75L105.17 3.75Q105.20 3.79 105.32 3.94L105.32 3.94L105.32 3.94Q105.45 4.09 105.66 4.33L105.66 4.33L105.66 4.33Q105.87 4.56 106.04 4.79L106.04 4.79L106.04 4.79Q107.94 7.27 111.13 10.77L111.13 10.77L111.13 10.77Q111.22 10.86 111.33 10.99L111.33 10.99L111.33 10.99Q111.45 11.12 111.50 11.18L111.50 11.18L111.50 11.18Q111.55 11.24 111.61 11.30L111.61 11.30L111.61 11.30Q111.66 11.35 111.70 11.38L111.70 11.38L111.70 11.38Q111.73 11.40 111.76 11.40L111.76 11.40L111.76 11.40Q111.90 11.40 111.90 10.53L111.90 10.53L111.90 8.89L111.90 8.89Q111.90 7.95 111.89 7.31L111.89 7.31L111.89 7.31Q111.89 6.66 111.88 6.38L111.88 6.38L111.88 6.38Q111.87 6.09 111.87 6.02L111.87 6.02L111.87 5.92L111.87 5.92Q111.87 5.45 111.81 5.11L111.81 5.11L111.81 5.11Q111.75 4.77 111.66 4.59L111.66 4.59L111.66 4.59Q111.58 4.41 111.42 4.28L111.42 4.28L111.42 4.28Q111.26 4.16 111.15 4.12L111.15 4.12L111.15 4.12Q111.03 4.09 110.82 4.05L110.82 4.05L110.82 4.05Q110.61 4.00 110.53 3.98L110.53 3.98L110.53 3.98Q110.25 3.89 110.25 3.74L110.25 3.74L110.25 3.74Q110.25 3.53 110.52 3.53L110.52 3.53L110.52 3.53Q110.60 3.53 111.19 3.54L111.19 3.54L111.19 3.54Q111.78 3.54 111.85 3.54L111.85 3.54L111.85 3.54Q112.18 3.54 112.59 3.53L112.59 3.53L112.59 3.53Q113.01 3.51 113.11 3.51L113.11 3.51L113.11 3.51Q113.34 3.51 113.44 3.56L113.44 3.56L113.44 3.56Q113.53 3.61 113.53 3.75L113.53 3.75L113.53 3.75Q113.53 3.81 113.45 3.86L113.45 3.86L113.45 3.86Q113.37 3.91 113.29 3.94L113.29 3.94L113.29 3.94Q113.20 3.98 113.12 4.00L113.12 4.00L113.04 4.03L113.04 4.03Q112.57 4.28 112.57 5.61L112.57 5.61L112.57 6.15L112.57 6.15Q112.57 7.21 112.50 9.83L112.50 9.83L112.50 9.83Q112.42 12.46 112.42 13.08L112.42 13.08L112.42 13.36L112.42 13.36Q112.42 13.68 112.22 13.68L112.22 13.68L112.22 13.68Q112.10 13.68 112 13.58L112 13.58L112 13.58Q107.35 8.19 106.45 7.17L106.45 7.17L106.45 7.17Q105.55 6.16 105.45 6.16L105.45 6.16L105.45 6.16Q105.31 6.16 105.31 7.11L105.31 7.11L105.31 7.11Q105.31 8.44 105.25 9.97L105.25 9.97L105.25 9.97Q105.20 11.51 105.20 11.65L105.20 11.65L105.20 11.65Q105.20 12.28 105.41 12.61L105.41 12.61L105.41 12.61Q105.63 12.94 105.88 12.98L105.88 12.98L105.88 12.98Q106.13 13.02 106.35 13.07L106.35 13.07L106.35 13.07Q106.57 13.12 106.57 13.26L106.57 13.26L106.57 13.26Q106.57 13.41 106.52 13.45L106.52 13.45L106.52 13.45Q106.47 13.50 106.34 13.50L106.34 13.50L106.34 13.50Q106.25 13.50 105.90 13.48L105.90 13.48L105.90 13.48Q105.56 13.47 104.85 13.47L104.85 13.47L104.85 13.47Q104.72 13.47 104.33 13.48L104.33 13.48L104.33 13.48Q103.94 13.50 103.66 13.50L103.66 13.50L103.66 13.50Q103.35 13.50 103.35 13.27L103.35 13.27L103.35 13.27Q103.35 13.15 103.53 13.11L103.53 13.11L103.53 13.11Q103.71 13.08 103.98 12.89L103.98 12.89L103.98 12.89Q104.24 12.71 104.38 12.21L104.38 12.21L104.38 12.21Q104.47 11.89 104.59 9.60L104.59 9.60L104.59 9.60Q104.72 7.32 104.72 6.45L104.72 6.45L104.72 6.45Q104.72 5.25 104.38 4.65L104.38 4.65L104.38 4.65Q104.05 4.06 103.29 3.98L103.29 3.98L103.29 3.98Q103.11 3.96 103.11 3.77ZM121.28 5.32L121.28 5.32L121.28 5.32Q121.28 4.76 121.42 3.88L121.42 3.88L121.42 3.88Q121.42 3.85 121.43 3.78L121.43 3.78L121.43 3.78Q121.44 3.71 121.44 3.69L121.44 3.69L121.44 3.69Q121.45 3.67 121.46 3.62L121.46 3.62L121.46 3.62Q121.46 3.57 121.48 3.55L121.48 3.55L121.48 3.55Q121.49 3.53 121.51 3.49L121.51 3.49L121.51 3.49Q121.53 3.46 121.56 3.44L121.56 3.44L121.56 3.44Q121.59 3.43 121.63 3.42L121.63 3.42L121.63 3.42Q121.67 3.40 121.73 3.39L121.73 3.39L121.73 3.39Q121.79 3.39 121.86 3.39L121.86 3.39L121.86 3.39Q122.08 3.39 123.04 3.44L123.04 3.44L123.04 3.44Q124.00 3.50 125.80 3.50L125.80 3.50L125.80 3.50Q128.88 3.50 130.12 3.43L130.12 3.43L130.12 3.43Q130.13 3.43 130.16 3.42L130.16 3.42L130.16 3.42Q130.20 3.42 130.21 3.42L130.21 3.42L130.21 3.42Q130.37 3.42 130.42 3.50L130.42 3.50L130.42 3.50Q130.48 3.58 130.48 3.65L130.48 3.65L130.48 3.65Q130.48 3.75 130.52 4.24L130.52 4.24L130.52 4.24Q130.56 4.73 130.56 4.79L130.56 4.79L130.56 4.79Q130.56 5.14 130.52 5.23L130.52 5.23L130.52 5.23Q130.48 5.32 130.34 5.32L130.34 5.32L130.34 5.32Q130.23 5.32 130.19 5.15L130.19 5.15L130.19 5.15Q130.07 4.75 129.99 4.60L129.99 4.60L129.99 4.60Q129.91 4.45 129.63 4.34L129.63 4.34L129.63 4.34Q129.35 4.23 128.77 4.23L128.77 4.23L126.95 4.23L126.95 4.23Q126.62 4.23 126.54 4.36L126.54 4.36L126.54 4.36Q126.46 4.49 126.46 5.12L126.46 5.12L126.46 5.81L126.46 5.81Q126.46 7.69 126.44 9.11L126.44 9.11L126.44 9.11Q126.42 10.54 126.42 10.93L126.42 10.93L126.42 10.93Q126.42 11.13 126.41 11.43L126.41 11.43L126.41 11.43Q126.41 11.73 126.41 11.84L126.41 11.84L126.41 11.84Q126.41 12.45 126.60 12.64L126.60 12.64L126.60 12.64Q126.78 12.81 127.01 12.90L127.01 12.90L127.01 12.90Q127.23 12.99 127.39 13.01L127.39 13.01L127.39 13.01Q127.55 13.02 127.67 13.08L127.67 13.08L127.67 13.08Q127.78 13.13 127.78 13.26L127.78 13.26L127.78 13.26Q127.78 13.41 127.71 13.45L127.71 13.45L127.71 13.45Q127.64 13.50 127.44 13.50L127.44 13.50L127.44 13.50Q127.27 13.50 126.70 13.44L126.70 13.44L126.70 13.44Q126.13 13.38 125.89 13.38L125.89 13.38L125.89 13.38Q125.72 13.38 125.21 13.43L125.21 13.43L125.21 13.43Q124.70 13.48 124.46 13.48L124.46 13.48L124.46 13.48Q123.94 13.48 123.94 13.26L123.94 13.26L123.94 13.26Q123.94 13.12 124.03 13.07L124.03 13.07L124.03 13.07Q124.11 13.02 124.35 12.98L124.35 12.98L124.35 12.98Q124.60 12.95 124.67 12.94L124.67 12.94L124.67 12.94Q125.15 12.82 125.20 12.38L125.20 12.38L125.20 12.38Q125.34 11.14 125.34 7.08L125.34 7.08L125.33 4.58L125.33 4.58Q125.33 4.31 125.17 4.25L125.17 4.25L125.17 4.25Q125.02 4.19 124.26 4.19L124.26 4.19L124.26 4.19Q123.28 4.19 122.79 4.24L122.79 4.24L122.79 4.24Q122.29 4.30 122.21 4.35L122.21 4.35L122.21 4.35Q122.12 4.40 122.01 4.54L122.01 4.54L122.01 4.54Q121.88 4.70 121.81 4.91L121.81 4.91L121.81 4.91Q121.73 5.11 121.71 5.24L121.71 5.24L121.71 5.24Q121.69 5.38 121.63 5.47L121.63 5.47L121.63 5.47Q121.56 5.56 121.44 5.56L121.44 5.56L121.44 5.56Q121.28 5.56 121.28 5.32ZM148.11 3.71L148.11 3.71L148.11 3.71Q148.11 3.50 148.50 3.50L148.50 3.50L148.50 3.50Q148.64 3.50 149.14 3.53L149.14 3.53L149.14 3.53Q149.65 3.56 150.08 3.56L150.08 3.56L150.08 3.56Q150.35 3.56 150.59 3.54L150.59 3.54L150.59 3.54Q150.84 3.53 151.31 3.53L151.31 3.53L151.31 3.53Q151.69 3.53 151.69 3.72L151.69 3.72L151.69 3.72Q151.69 3.84 151.05 4.10L151.05 4.10L151.05 4.10Q150.60 4.28 150.60 5.71L150.60 5.71L150.60 5.71Q150.60 7.60 150.58 9.05L150.58 9.05L150.58 9.05Q150.56 10.50 150.56 10.89L150.56 10.89L150.56 10.89Q150.56 12.07 150.91 12.59L150.91 12.59L150.91 12.59Q151.21 13.02 151.58 13.02L151.58 13.02L151.58 13.02Q151.61 13.02 151.72 13.03L151.72 13.03L151.72 13.03Q151.83 13.03 151.86 13.03L151.86 13.03L151.86 13.03Q151.96 13.03 152.05 13.08L152.05 13.08L152.05 13.08Q152.15 13.13 152.15 13.19L152.15 13.19L152.15 13.19Q152.15 13.34 152.07 13.39L152.07 13.39L152.07 13.39Q152.00 13.44 151.80 13.44L151.80 13.44L151.80 13.44Q151.38 13.44 151.03 13.41L151.03 13.41L151.03 13.41Q150.67 13.38 150.47 13.38L150.47 13.38L150.47 13.38Q150.08 13.38 149.62 13.42L149.62 13.42L149.62 13.42Q149.16 13.45 148.93 13.45L148.93 13.45L148.93 13.45Q148.30 13.45 148.30 13.24L148.30 13.24L148.30 13.24Q148.30 13.12 148.44 13.07L148.44 13.07L148.44 13.07Q148.57 13.02 148.74 13.00L148.74 13.00L148.74 13.00Q148.90 12.98 149.09 12.82L149.09 12.82L149.09 12.82Q149.27 12.66 149.34 12.35L149.34 12.35L149.34 12.35Q149.37 12.25 149.43 10.76L149.43 10.76L149.43 10.76Q149.49 9.27 149.49 8.61L149.49 8.61L149.49 7.81L149.49 7.81Q149.49 7.63 149.50 7.12L149.50 7.12L149.50 7.12Q149.51 6.61 149.51 6.30L149.51 6.30L149.51 5.66L149.51 5.66Q149.51 5.04 149.45 4.63L149.45 4.63L149.45 4.63Q149.41 4.30 149.08 4.12L149.08 4.12L149.08 4.12Q148.75 3.93 148.40 3.92L148.40 3.92L148.40 3.92Q148.11 3.91 148.11 3.71ZM159.70 5.32L159.70 5.32L159.70 5.32Q159.70 4.76 159.84 3.88L159.84 3.88L159.84 3.88Q159.84 3.85 159.84 3.78L159.84 3.78L159.84 3.78Q159.85 3.71 159.86 3.69L159.86 3.69L159.86 3.69Q159.87 3.67 159.87 3.62L159.87 3.62L159.87 3.62Q159.88 3.57 159.89 3.55L159.89 3.55L159.89 3.55Q159.91 3.53 159.93 3.49L159.93 3.49L159.93 3.49Q159.95 3.46 159.98 3.44L159.98 3.44L159.98 3.44Q160.01 3.43 160.05 3.42L160.05 3.42L160.05 3.42Q160.09 3.40 160.15 3.39L160.15 3.39L160.15 3.39Q160.20 3.39 160.27 3.39L160.27 3.39L160.27 3.39Q160.50 3.39 161.46 3.44L161.46 3.44L161.46 3.44Q162.41 3.50 164.22 3.50L164.22 3.50L164.22 3.50Q167.30 3.50 168.53 3.43L168.53 3.43L168.53 3.43Q168.55 3.43 168.58 3.42L168.58 3.42L168.58 3.42Q168.62 3.42 168.63 3.42L168.63 3.42L168.63 3.42Q168.78 3.42 168.84 3.50L168.84 3.50L168.84 3.50Q168.90 3.58 168.90 3.65L168.90 3.65L168.90 3.65Q168.90 3.75 168.94 4.24L168.94 4.24L168.94 4.24Q168.98 4.73 168.98 4.79L168.98 4.79L168.98 4.79Q168.98 5.14 168.94 5.23L168.94 5.23L168.94 5.23Q168.90 5.32 168.76 5.32L168.76 5.32L168.76 5.32Q168.64 5.32 168.60 5.15L168.60 5.15L168.60 5.15Q168.49 4.75 168.41 4.60L168.41 4.60L168.41 4.60Q168.32 4.45 168.04 4.34L168.04 4.34L168.04 4.34Q167.76 4.23 167.19 4.23L167.19 4.23L165.37 4.23L165.37 4.23Q165.03 4.23 164.96 4.36L164.96 4.36L164.96 4.36Q164.88 4.49 164.88 5.12L164.88 5.12L164.88 5.81L164.88 5.81Q164.88 7.69 164.86 9.11L164.86 9.11L164.86 9.11Q164.84 10.54 164.84 10.93L164.84 10.93L164.84 10.93Q164.84 11.13 164.83 11.43L164.83 11.43L164.83 11.43Q164.82 11.73 164.82 11.84L164.82 11.84L164.82 11.84Q164.82 12.45 165.02 12.64L165.02 12.64L165.02 12.64Q165.20 12.81 165.42 12.90L165.42 12.90L165.42 12.90Q165.65 12.99 165.81 13.01L165.81 13.01L165.81 13.01Q165.97 13.02 166.08 13.08L166.08 13.08L166.08 13.08Q166.19 13.13 166.19 13.26L166.19 13.26L166.19 13.26Q166.19 13.41 166.12 13.45L166.12 13.45L166.12 13.45Q166.05 13.50 165.86 13.50L165.86 13.50L165.86 13.50Q165.69 13.50 165.12 13.44L165.12 13.44L165.12 13.44Q164.54 13.38 164.30 13.38L164.30 13.38L164.30 13.38Q164.14 13.38 163.63 13.43L163.63 13.43L163.63 13.43Q163.11 13.48 162.88 13.48L162.88 13.48L162.88 13.48Q162.36 13.48 162.36 13.26L162.36 13.26L162.36 13.26Q162.36 13.12 162.44 13.07L162.44 13.07L162.44 13.07Q162.53 13.02 162.77 12.98L162.77 12.98L162.77 12.98Q163.02 12.95 163.09 12.94L163.09 12.94L163.09 12.94Q163.56 12.82 163.62 12.38L163.62 12.38L163.62 12.38Q163.76 11.14 163.76 7.08L163.76 7.08L163.74 4.58L163.74 4.58Q163.74 4.31 163.59 4.25L163.59 4.25L163.59 4.25Q163.44 4.19 162.68 4.19L162.68 4.19L162.68 4.19Q161.70 4.19 161.20 4.24L161.20 4.24L161.20 4.24Q160.71 4.30 160.62 4.35L160.62 4.35L160.62 4.35Q160.54 4.40 160.43 4.54L160.43 4.54L160.43 4.54Q160.30 4.70 160.22 4.91L160.22 4.91L160.22 4.91Q160.15 5.11 160.13 5.24L160.13 5.24L160.13 5.24Q160.10 5.38 160.04 5.47L160.04 5.47L160.04 5.47Q159.98 5.56 159.85 5.56L159.85 5.56L159.85 5.56Q159.70 5.56 159.70 5.32ZM176.22 13.15L176.22 13.15Q175.78 12.84 175.78 12.67L175.78 12.67L175.78 12.67Q175.78 12.50 176.22 12.12L176.22 12.12L176.22 12.12Q176.27 12.07 176.38 11.93L176.38 11.93L176.38 11.93Q176.48 11.79 176.59 11.71L176.59 11.71L176.59 11.71Q176.69 11.63 176.81 11.63L176.81 11.63L176.81 11.63Q176.92 11.63 177.38 12.18L177.38 12.18L177.38 12.18Q177.42 12.22 177.54 12.33L177.54 12.33L177.54 12.33Q177.66 12.43 177.73 12.52L177.73 12.52L177.73 12.52Q177.80 12.61 177.80 12.67L177.80 12.67L177.80 12.67Q177.80 12.74 177.73 12.82L177.73 12.82L177.73 12.82Q177.66 12.89 177.52 13.01L177.52 13.01L177.52 13.01Q177.38 13.12 177.31 13.17L177.31 13.17L177.31 13.17Q177.25 13.23 177.15 13.37L177.15 13.37L177.15 13.37Q177.04 13.51 176.95 13.59L176.95 13.59L176.95 13.59Q176.86 13.66 176.78 13.66L176.78 13.66L176.78 13.66Q176.65 13.66 176.46 13.42L176.46 13.42L176.46 13.42Q176.26 13.17 176.22 13.15L176.22 13.15ZM195.82 3.71L195.82 3.71L195.82 3.71Q195.82 3.51 196.20 3.51L196.20 3.51L196.20 3.51Q196.28 3.51 196.74 3.54L196.74 3.54L196.74 3.54Q197.19 3.56 197.74 3.56L197.74 3.56L197.74 3.56Q198.13 3.56 198.52 3.54L198.52 3.54L198.52 3.54Q198.91 3.51 198.94 3.51L198.94 3.51L198.94 3.51Q199.07 3.51 199.10 3.55L199.10 3.55L199.10 3.55Q199.14 3.58 199.14 3.68L199.14 3.68L199.14 3.68Q199.14 3.77 198.84 3.92L198.84 3.92L198.84 3.92Q198.53 4.07 198.53 4.34L198.53 4.34L198.53 4.34Q198.53 4.47 198.59 4.65L198.59 4.65L198.59 4.65Q198.65 4.83 198.81 5.22L198.81 5.22L198.81 5.22Q198.98 5.61 199.17 6.03L199.17 6.03L199.17 6.03Q199.36 6.45 199.75 7.33L199.75 7.33L199.75 7.33Q200.14 8.20 200.52 9.07L200.52 9.07L200.52 9.07Q200.62 9.30 200.81 9.74L200.81 9.74L200.81 9.74Q201.00 10.18 201.12 10.46L201.12 10.46L201.12 10.46Q201.24 10.74 201.38 11.05L201.38 11.05L201.38 11.05Q201.52 11.37 201.61 11.52L201.61 11.52L201.61 11.52Q201.70 11.68 201.74 11.68L201.74 11.68L201.74 11.68Q201.80 11.68 202.19 10.81L202.19 10.81L202.19 10.81Q202.58 9.94 202.89 9.17L202.89 9.17L202.89 9.17Q202.94 9.04 203.02 8.89L203.02 8.89L203.02 8.89Q203.10 8.74 203.13 8.63L203.13 8.63L203.13 8.63Q203.17 8.53 203.17 8.41L203.17 8.41L203.17 8.41Q203.17 8.25 202.33 6.36L202.33 6.36L202.33 6.36Q201.49 4.48 201.25 4.21L201.25 4.21L201.25 4.21Q201.19 4.14 201.14 4.10L201.14 4.10L201.14 4.10Q201.08 4.06 201.03 4.02L201.03 4.02L201.03 4.02Q200.98 3.99 200.95 3.97L200.95 3.97L200.95 3.97Q200.91 3.95 200.86 3.94L200.86 3.94L200.86 3.94Q200.80 3.93 200.78 3.93L200.78 3.93L200.78 3.93Q200.76 3.93 200.70 3.93L200.70 3.93L200.70 3.93Q200.63 3.92 200.62 3.92L200.62 3.92L200.62 3.92Q200.23 3.88 200.14 3.84L200.14 3.84L200.14 3.84Q200.06 3.81 200.06 3.70L200.06 3.70L200.06 3.70Q200.06 3.50 200.47 3.50L200.47 3.50L200.47 3.50Q200.55 3.50 201.01 3.53L201.01 3.53L201.01 3.53Q201.47 3.56 202.01 3.56L202.01 3.56L202.01 3.56Q202.03 3.56 202.38 3.53L202.38 3.53L202.38 3.53Q202.73 3.50 202.93 3.50L202.93 3.50L202.93 3.50Q203.35 3.50 203.35 3.61L203.35 3.61L203.35 3.61Q203.35 3.70 203.20 3.78L203.20 3.78L203.20 3.78Q203.04 3.86 202.90 4.00L202.90 4.00L202.90 4.00Q202.75 4.13 202.75 4.33L202.75 4.33L202.75 4.33Q202.75 4.59 203.18 5.57L203.18 5.57L203.18 5.57Q203.21 5.63 203.37 6.03L203.37 6.03L203.37 6.03Q203.53 6.44 203.66 6.71L203.66 6.71L203.66 6.71Q203.78 6.99 203.84 6.99L203.84 6.99L203.84 6.99Q203.95 6.99 204.40 5.76L204.40 5.76L204.40 5.76Q204.85 4.54 204.85 4.31L204.85 4.31L204.85 4.31Q204.85 4.06 204.64 3.96L204.64 3.96L204.64 3.96Q204.43 3.85 204.22 3.80L204.22 3.80L204.22 3.80Q204.01 3.75 204.01 3.64L204.01 3.64L204.01 3.64Q204.01 3.49 204.32 3.49L204.32 3.49L204.32 3.49Q204.40 3.49 204.74 3.50L204.74 3.50L204.74 3.50Q205.07 3.51 205.21 3.51L205.21 3.51L205.45 3.51L205.45 3.51Q205.65 3.51 206.19 3.47L206.19 3.47L206.32 3.47L206.32 3.47Q206.50 3.47 206.50 3.61L206.50 3.61L206.50 3.61Q206.50 3.75 206.23 3.84L206.23 3.84L206.23 3.84Q205.97 3.92 205.87 4.02L205.87 4.02L205.87 4.02Q205.65 4.24 205.48 4.66L205.48 4.66L205.48 4.66Q205.18 5.38 204.78 6.33L204.78 6.33L204.78 6.33Q204.36 7.31 204.29 7.50L204.29 7.50L204.29 7.50Q204.22 7.70 204.22 7.85L204.22 7.85L204.22 7.85Q204.22 7.97 205.07 9.87L205.07 9.87L205.07 9.87Q205.93 11.77 206.08 11.77L206.08 11.77L206.08 11.77Q206.25 11.77 207.71 8.24L207.71 8.24L207.71 8.24Q209.17 4.70 209.17 4.35L209.17 4.35L209.17 4.35Q209.17 4.13 209.01 4.01L209.01 4.01L209.01 4.01Q208.85 3.89 208.66 3.87L208.66 3.87L208.66 3.87Q208.46 3.85 208.30 3.80L208.30 3.80L208.30 3.80Q208.14 3.75 208.14 3.64L208.14 3.64L208.14 3.64Q208.14 3.54 208.18 3.52L208.18 3.52L208.18 3.52Q208.22 3.50 208.40 3.50L208.40 3.50L208.40 3.50Q208.45 3.50 208.73 3.51L208.73 3.51L208.73 3.51Q209.01 3.51 209.29 3.51L209.29 3.51L209.29 3.51Q209.54 3.51 209.85 3.50L209.85 3.50L209.85 3.50Q210.17 3.49 210.53 3.49L210.53 3.49L210.53 3.49Q210.81 3.49 210.81 3.68L210.81 3.68L210.81 3.68Q210.81 3.78 210.74 3.84L210.74 3.84L210.74 3.84Q210.66 3.89 210.50 3.98L210.50 3.98L210.50 3.98Q210.35 4.06 210.24 4.17L210.24 4.17L210.24 4.17Q210.17 4.24 210.12 4.31L210.12 4.31L210.12 4.31Q210.07 4.38 210.01 4.49L210.01 4.49L210.01 4.49Q209.96 4.59 209.92 4.66L209.92 4.66L209.92 4.66Q209.89 4.73 209.81 4.91L209.81 4.91L209.81 4.91Q209.73 5.08 209.69 5.18L209.69 5.18L209.69 5.18Q208.61 7.59 207.28 10.58L207.28 10.58L207.28 10.58Q206.22 13.01 206.02 13.41L206.02 13.41L206.02 13.41Q205.83 13.82 205.72 13.82L205.72 13.82L205.72 13.82Q205.65 13.82 205.55 13.64L205.55 13.64L205.55 13.64Q205.45 13.47 205.28 13.05L205.28 13.05L205.28 13.05Q205.10 12.64 205.07 12.57L205.07 12.57L205.07 12.57Q204.93 12.26 204.70 11.72L204.70 11.72L204.70 11.72Q204.47 11.17 204.31 10.79L204.31 10.79L204.31 10.79Q204.15 10.42 203.98 10.02L203.98 10.02L203.98 10.02Q203.81 9.63 203.70 9.43L203.70 9.43L203.70 9.43Q203.59 9.23 203.55 9.23L203.55 9.23L203.55 9.23Q203.41 9.23 202.60 11.16L202.60 11.16L202.60 11.16Q201.80 13.09 201.74 13.31L201.74 13.31L201.74 13.31Q201.73 13.37 201.71 13.43L201.71 13.43L201.71 13.43Q201.68 13.48 201.67 13.52L201.67 13.52L201.67 13.52Q201.66 13.57 201.64 13.61L201.64 13.61L201.64 13.61Q201.63 13.65 201.61 13.68L201.61 13.68L201.61 13.68Q201.60 13.71 201.59 13.73L201.59 13.73L201.59 13.73Q201.59 13.76 201.57 13.78L201.57 13.78L201.57 13.78Q201.56 13.80 201.54 13.82L201.54 13.82L201.54 13.82Q201.53 13.83 201.52 13.84L201.52 13.84L201.52 13.84Q201.50 13.85 201.49 13.85L201.49 13.85L201.49 13.85Q201.47 13.86 201.45 13.86L201.45 13.86L201.45 13.86Q201.32 13.86 201.14 13.46L201.14 13.46L201.14 13.46Q200.96 13.06 200.48 11.89L200.48 11.89L200.48 11.89Q200.00 10.72 199.51 9.65L199.51 9.65L199.51 9.65Q198.70 7.87 197.79 5.63L197.79 5.63L197.79 5.63Q197.53 4.96 197.22 4.57L197.22 4.57L197.22 4.57Q196.91 4.19 196.67 4.09L196.67 4.09L196.67 4.09Q196.43 3.99 196.24 3.98L196.24 3.98L196.24 3.98Q196.04 3.96 195.93 3.92L195.93 3.92L195.93 3.92Q195.82 3.88 195.82 3.71ZM218.36 3.65L218.36 3.65L218.36 3.65Q218.36 3.46 218.75 3.46L218.75 3.46L218.75 3.46Q218.81 3.46 218.93 3.47L218.93 3.47L218.93 3.47Q219.06 3.49 219.13 3.49L219.13 3.49L219.13 3.49Q219.17 3.49 220.44 3.52L220.44 3.52L220.44 3.52Q221.72 3.56 222.54 3.56L222.54 3.56L222.54 3.56Q222.84 3.56 223.99 3.53L223.99 3.53L223.99 3.53Q225.15 3.50 225.34 3.50L225.34 3.50L225.34 3.50Q225.61 3.50 225.61 3.82L225.61 3.82L225.61 3.82Q225.61 3.91 225.53 4.38L225.53 4.38L225.53 4.38Q225.44 4.84 225.44 5.25L225.44 5.25L225.44 5.25Q225.44 5.38 225.37 5.47L225.37 5.47L225.37 5.47Q225.30 5.56 225.22 5.56L225.22 5.56L225.22 5.56Q225.01 5.56 225.01 5.26L225.01 5.26L225.01 5.26Q225.01 4.89 224.77 4.58L224.77 4.58L224.77 4.58Q224.53 4.27 224.18 4.26L224.18 4.26L224.18 4.26Q222.92 4.16 222.25 4.16L222.25 4.16L221.89 4.16L221.89 4.16Q221.16 4.16 221.04 4.26L221.04 4.26L221.04 4.26Q220.92 4.37 220.89 5.01L220.89 5.01L220.89 5.01Q220.84 6.02 220.84 7.35L220.84 7.35L220.84 7.35Q220.84 8.05 221.10 8.06L221.10 8.06L221.45 8.06L222.04 8.06L222.47 8.06L222.47 8.06Q223.31 8.06 223.59 8.01L223.59 8.01L223.59 8.01Q223.87 7.95 224.10 7.80L224.10 7.80L224.10 7.80Q224.36 7.62 224.42 7.28L224.42 7.28L224.42 7.28Q224.46 7.04 224.62 7.04L224.62 7.04L224.62 7.04Q224.74 7.04 224.77 7.08L224.77 7.08L224.77 7.08Q224.80 7.13 224.80 7.27L224.80 7.27L224.80 7.27Q224.80 7.36 224.74 7.91L224.74 7.91L224.74 7.91Q224.69 8.46 224.69 8.74L224.69 8.74L224.69 8.74Q224.69 9.00 224.71 9.24L224.71 9.24L224.71 9.24Q224.73 9.48 224.73 9.59L224.73 9.59L224.73 9.59Q224.73 9.94 224.63 9.94L224.63 9.94L224.63 9.94Q224.42 9.94 224.32 9.60L224.32 9.60L224.32 9.60Q224.13 9.02 223.97 8.92L223.97 8.92L223.97 8.92Q223.68 8.72 222.63 8.72L222.63 8.72L222.63 8.72Q222.21 8.72 221.95 8.72L221.95 8.72L221.95 8.72Q221.69 8.72 221.61 8.71L221.61 8.71L221.61 8.71Q221.54 8.71 221.49 8.71L221.49 8.71L221.49 8.71Q221.44 8.71 221.40 8.71L221.40 8.71L221.40 8.71Q220.82 8.71 220.82 8.97L220.82 8.97L220.82 8.97Q220.82 9.38 220.81 9.99L220.81 9.99L220.81 9.99Q220.79 10.60 220.79 10.99L220.79 10.99L220.79 11.55L220.79 11.55Q220.79 12.56 221.13 12.66L221.13 12.66L221.13 12.66Q221.48 12.77 221.73 12.77L221.73 12.77L221.73 12.77Q222.78 12.77 223.57 12.67L223.57 12.67L223.57 12.67Q224.36 12.57 224.76 12.42L224.76 12.42L224.76 12.42Q225.16 12.28 225.43 12.10L225.43 12.10L225.43 12.10Q225.69 11.93 225.77 11.78L225.77 11.78L225.77 11.78Q225.85 11.63 225.93 11.54L225.93 11.54L225.93 11.54Q226.00 11.44 226.09 11.44L226.09 11.44L226.09 11.44Q226.25 11.44 226.25 11.68L226.25 11.68L226.25 11.68Q226.25 12.28 225.65 12.89L225.65 12.89L225.65 12.89Q225.05 13.51 224.60 13.51L224.60 13.51L224.60 13.51Q223.59 13.51 222.33 13.44L222.33 13.44L222.33 13.44Q221.06 13.37 220.75 13.37L220.75 13.37L220.75 13.37Q220.36 13.37 219.77 13.43L219.77 13.43L219.77 13.43Q219.18 13.50 218.85 13.50L218.85 13.50L218.85 13.50Q218.55 13.50 218.55 13.36L218.55 13.36L218.55 13.36Q218.55 13.23 218.55 13.19L218.55 13.19L218.55 13.19Q218.55 13.15 218.60 13.12L218.60 13.12L218.60 13.12Q218.64 13.09 218.69 13.08L218.69 13.08L218.69 13.08Q218.74 13.08 218.87 13.03L218.87 13.03L218.87 13.03Q219.00 12.99 219.16 12.92L219.16 12.92L219.16 12.92Q219.49 12.75 219.60 12.26L219.60 12.26L219.60 12.26Q219.70 11.77 219.70 10.21L219.70 10.21L219.70 8.47L219.70 8.47Q219.70 8.09 219.72 7.29L219.72 7.29L219.72 7.29Q219.74 6.50 219.74 6.05L219.74 6.05L219.74 6.05Q219.74 5.67 219.72 4.77L219.72 4.77L219.72 4.77Q219.70 4.37 219.37 4.14L219.37 4.14L219.37 4.14Q219.03 3.92 218.58 3.91L218.58 3.91L218.58 3.91Q218.36 3.91 218.36 3.65ZM243.80 3.65L243.80 3.65L243.80 3.65Q243.80 3.50 244.19 3.50L244.19 3.50L244.19 3.50Q244.33 3.50 244.83 3.53L244.83 3.53L244.83 3.53Q245.34 3.56 245.77 3.56L245.77 3.56L245.77 3.56Q246.04 3.56 246.28 3.54L246.28 3.54L246.28 3.54Q246.53 3.53 247.00 3.53L247.00 3.53L247.00 3.53Q247.31 3.53 247.31 3.72L247.31 3.72L247.31 3.72Q247.31 3.96 246.82 3.96L246.82 3.96L246.82 3.96Q246.54 3.96 246.41 4.54L246.41 4.54L246.41 4.54Q246.29 5.11 246.29 5.71L246.29 5.71L246.29 6.23L246.29 6.23Q246.29 6.57 246.27 6.99L246.27 6.99L246.27 6.99Q246.26 7.42 246.26 7.52L246.26 7.52L246.26 7.52Q246.26 7.87 246.34 7.97L246.34 7.97L246.34 7.97Q246.43 8.06 246.74 8.06L246.74 8.06L246.74 8.06Q246.76 8.06 247.28 8.06L247.28 8.06L247.28 8.06Q247.80 8.05 249.03 8.05L249.03 8.05L249.03 8.05Q249.14 8.05 249.41 8.06L249.41 8.06L249.41 8.06Q249.68 8.06 250.28 8.07L250.28 8.07L250.28 8.07Q250.89 8.08 251.68 8.08L251.68 8.08L251.68 8.08Q251.78 8.08 251.80 7.84L251.80 7.84L251.80 7.84Q251.83 7.56 251.83 6.13L251.83 6.13L251.83 5.38L251.83 5.38Q251.83 4.83 251.71 4.51L251.71 4.51L251.71 4.51Q251.59 4.19 251.42 4.09L251.42 4.09L251.42 4.09Q251.24 3.99 251.07 3.96L251.07 3.96L251.07 3.96Q250.89 3.93 250.77 3.88L250.77 3.88L250.77 3.88Q250.66 3.84 250.66 3.70L250.66 3.70L250.66 3.70Q250.66 3.56 251.20 3.56L251.20 3.56L251.20 3.56Q251.34 3.56 251.80 3.57L251.80 3.57L251.80 3.57Q252.27 3.58 252.56 3.58L252.56 3.58L252.56 3.58Q252.70 3.58 253.04 3.57L253.04 3.57L253.04 3.57Q253.37 3.56 253.65 3.56L253.65 3.56L253.65 3.56Q253.97 3.56 253.97 3.74L253.97 3.74L253.97 3.74Q253.97 3.92 253.78 3.92L253.78 3.92L253.78 3.92Q253.39 3.92 253.18 4.16L253.18 4.16L253.18 4.16Q252.98 4.40 252.98 4.79L252.98 4.79L252.98 4.79Q252.98 5.25 252.96 6.42L252.96 6.42L252.96 6.42Q252.94 7.59 252.94 8.19L252.94 8.19L252.94 8.19Q252.94 8.51 252.92 9.20L252.92 9.20L252.92 9.20Q252.91 9.90 252.91 10.29L252.91 10.29L252.91 10.81L252.91 10.81Q252.91 11.23 252.94 11.58L252.94 11.58L252.94 11.58Q252.97 11.94 252.97 12.10L252.97 12.10L252.97 12.10Q252.97 13.01 254.14 13.13L254.14 13.13L254.14 13.13Q254.31 13.13 254.31 13.29L254.31 13.29L254.31 13.29Q254.31 13.38 254.17 13.41L254.17 13.41L254.17 13.41Q254.03 13.44 253.62 13.44L253.62 13.44L253.62 13.44Q253.47 13.44 253.11 13.40L253.11 13.40L253.11 13.40Q252.76 13.37 252.55 13.37L252.55 13.37L252.55 13.37Q252.29 13.37 251.94 13.40L251.94 13.40L251.94 13.40Q251.58 13.44 251.23 13.44L251.23 13.44L251.23 13.44Q251.06 13.44 250.99 13.44L250.99 13.44L250.99 13.44Q250.92 13.44 250.84 13.42L250.84 13.42L250.84 13.42Q250.77 13.40 250.75 13.36L250.75 13.36L250.75 13.36Q250.73 13.33 250.73 13.26L250.73 13.26L250.73 13.26Q250.73 13.17 250.87 13.10L250.87 13.10L250.87 13.10Q251.01 13.03 251.17 12.99L251.17 12.99L251.17 12.99Q251.34 12.95 251.50 12.83L251.50 12.83L251.50 12.83Q251.66 12.71 251.69 12.53L251.69 12.53L251.69 12.53Q251.79 12.03 251.79 11.51L251.79 11.51L251.79 11.51Q251.79 11.37 251.80 11.12L251.80 11.12L251.80 11.12Q251.80 10.86 251.80 10.75L251.80 10.75L251.80 10.75Q251.80 10.50 251.82 9.93L251.82 9.93L251.82 9.93Q251.83 9.35 251.83 9.03L251.83 9.03L251.83 9.03Q251.83 8.82 251.66 8.74L251.66 8.74L251.66 8.74Q251.50 8.65 250.95 8.65L250.95 8.65L250.95 8.65Q250.74 8.65 249.98 8.68L249.98 8.68L249.23 8.69L249.23 8.69Q248.61 8.69 247.84 8.67L247.84 8.67L247.84 8.67Q247.07 8.65 246.65 8.65L246.65 8.65L246.65 8.65Q246.44 8.65 246.37 8.74L246.37 8.74L246.37 8.74Q246.30 8.82 246.30 9.17L246.30 9.17L246.30 9.17Q246.30 9.52 246.27 10.08L246.27 10.08L246.27 10.08Q246.25 10.64 246.25 10.89L246.25 10.89L246.25 11.49L246.25 11.49Q246.25 12.10 246.36 12.39L246.36 12.39L246.36 12.39Q246.47 12.68 246.90 12.96L246.90 12.96L246.90 12.96Q247.02 13.03 247.51 13.03L247.51 13.03L247.51 13.03Q247.60 13.03 247.69 13.08L247.69 13.08L247.69 13.08Q247.77 13.13 247.77 13.19L247.77 13.19L247.77 13.19Q247.77 13.44 247.32 13.44L247.32 13.44L247.32 13.44Q246.90 13.44 246.63 13.41L246.63 13.41L246.63 13.41Q246.36 13.38 246.16 13.38L246.16 13.38L246.16 13.38Q245.77 13.38 245.32 13.42L245.32 13.42L245.32 13.42Q244.87 13.45 244.65 13.45L244.65 13.45L244.65 13.45Q243.99 13.45 243.99 13.24L243.99 13.24L243.99 13.24Q243.99 13.12 244.13 13.07L244.13 13.07L244.13 13.07Q244.26 13.02 244.43 13.00L244.43 13.00L244.43 13.00Q244.59 12.98 244.78 12.82L244.78 12.82L244.78 12.82Q244.96 12.66 245.03 12.35L245.03 12.35L245.03 12.35Q245.07 12.11 245.14 10.91L245.14 10.91L245.14 10.91Q245.21 9.70 245.21 8.61L245.21 8.61L245.21 7.81L245.21 7.81Q245.21 7.63 245.22 7.12L245.22 7.12L245.22 7.12Q245.22 6.61 245.22 6.30L245.22 6.30L245.22 6.30Q245.22 5.24 245.14 4.63L245.14 4.63L245.14 4.63Q245.10 4.28 244.77 4.09L244.77 4.09L244.77 4.09Q244.44 3.89 244.09 3.89L244.09 3.89L244.09 3.89Q243.95 3.89 243.87 3.80L243.87 3.80L243.87 3.80Q243.80 3.71 243.80 3.65ZM261.87 13.33L261.87 13.33L261.87 13.33Q261.87 13.13 262.08 13.06L262.08 13.06L262.08 13.06Q262.53 12.89 262.86 12.31L262.86 12.31L262.86 12.31Q263.20 11.73 264.53 8.83L264.53 8.83L264.53 8.83Q265.90 5.87 266.95 3.63L266.95 3.63L266.95 3.63Q267.05 3.42 267.13 3.36L267.13 3.36L267.13 3.36Q267.20 3.30 267.37 3.30L267.37 3.30L267.37 3.30Q267.50 3.30 267.54 3.36L267.54 3.36L267.54 3.36Q267.58 3.42 267.72 3.82L267.72 3.82L267.72 3.82Q267.81 4.06 267.87 4.23L267.87 4.23L267.87 4.23Q267.93 4.40 268.07 4.77L268.07 4.77L268.07 4.77Q268.21 5.15 268.38 5.56L268.38 5.56L268.38 5.56Q268.83 6.66 269.93 9.22L269.93 9.22L269.93 9.22Q271.03 11.77 271.12 11.98L271.12 11.98L271.12 11.98Q271.36 12.46 271.66 12.71L271.66 12.71L271.66 12.71Q271.95 12.95 272.17 12.97L272.17 12.97L272.17 12.97Q272.38 12.99 272.53 13.04L272.53 13.04L272.53 13.04Q272.68 13.09 272.68 13.26L272.68 13.26L272.68 13.26Q272.68 13.47 272.30 13.47L272.30 13.47L272.30 13.47Q272.15 13.47 271.70 13.43L271.70 13.43L271.70 13.43Q271.25 13.38 271.04 13.38L271.04 13.38L271.04 13.38Q270.77 13.38 270.35 13.41L270.35 13.41L270.35 13.41Q269.93 13.44 269.74 13.44L269.74 13.44L269.74 13.44Q269.30 13.44 269.19 13.40L269.19 13.40L269.19 13.40Q269.07 13.37 269.07 13.24L269.07 13.24L269.07 13.24Q269.07 13.15 269.18 13.08L269.18 13.08L269.18 13.08Q269.29 13.02 269.42 13.00L269.42 13.00L269.42 13.00Q269.54 12.98 269.65 12.87L269.65 12.87L269.65 12.87Q269.77 12.77 269.77 12.59L269.77 12.59L269.77 12.59Q269.77 12.28 269.42 11.33L269.42 11.33L269.42 11.33Q269.07 10.37 268.83 9.93L268.83 9.93L268.83 9.93Q268.70 9.69 268.25 9.69L268.25 9.69L268.25 9.69Q268.18 9.69 267.64 9.70L267.64 9.70L267.64 9.70Q267.09 9.72 266.56 9.72L266.56 9.72L265.82 9.72L265.82 9.72Q265.19 9.72 265.03 9.79L265.03 9.79L265.03 9.79Q264.87 9.86 264.74 10.12L264.74 10.12L264.74 10.12Q264.66 10.30 264.46 10.70L264.46 10.70L264.46 10.70Q264.26 11.10 264.19 11.26L264.19 11.26L264.19 11.26Q264.12 11.41 264.02 11.65L264.02 11.65L264.02 11.65Q263.91 11.90 263.88 12.05L263.88 12.05L263.88 12.05Q263.84 12.19 263.84 12.31L263.84 12.31L263.84 12.31Q263.84 12.63 264.01 12.80L264.01 12.80L264.01 12.80Q264.17 12.96 264.36 12.98L264.36 12.98L264.36 12.98Q264.56 13.01 264.72 13.06L264.72 13.06L264.72 13.06Q264.88 13.12 264.88 13.26L264.88 13.26L264.88 13.26Q264.88 13.36 264.84 13.40L264.84 13.40L264.84 13.40Q264.80 13.45 264.64 13.45L264.64 13.45L264.64 13.45Q264.56 13.45 264.16 13.45L264.16 13.45L264.16 13.45Q263.76 13.44 263.48 13.44L263.48 13.44L263.48 13.44Q263.17 13.44 262.79 13.47L262.79 13.47L262.79 13.47Q262.40 13.50 262.28 13.50L262.28 13.50L262.28 13.50Q261.87 13.50 261.87 13.33ZM265.38 8.71L265.38 8.71L265.38 8.71Q265.38 8.89 265.51 8.93L265.51 8.93L265.51 8.93Q265.64 8.97 266.10 8.97L266.10 8.97L266.53 8.97L267.86 8.96L267.86 8.96Q268.41 8.96 268.41 8.74L268.41 8.74L268.41 8.74Q268.41 8.55 267.72 7.01L267.72 7.01L267.72 7.01Q267.04 5.46 266.85 5.46L266.85 5.46L266.85 5.46Q266.73 5.46 266.06 7.01L266.06 7.01L266.06 7.01Q265.38 8.55 265.38 8.71ZM278.26 3.70L278.26 3.70L278.26 3.70Q278.26 3.50 278.66 3.50L278.66 3.50L278.66 3.50Q278.73 3.50 279.20 3.53L279.20 3.53L279.20 3.53Q279.66 3.56 280.20 3.56L280.20 3.56L280.20 3.56Q280.32 3.56 280.64 3.54L280.64 3.54L280.64 3.54Q280.95 3.53 281.11 3.53L281.11 3.53L281.11 3.53Q281.43 3.53 281.50 3.56L281.50 3.56L281.50 3.56Q281.57 3.58 281.57 3.68L281.57 3.68L281.57 3.68Q281.57 3.77 281.43 3.84L281.43 3.84L281.43 3.84Q281.29 3.91 281.14 4.02L281.14 4.02L281.14 4.02Q280.99 4.14 280.99 4.34L280.99 4.34L280.99 4.34Q280.99 4.52 281.04 4.71L281.04 4.71L281.04 4.71Q281.09 4.90 281.26 5.29L281.26 5.29L281.26 5.29Q281.43 5.68 281.60 6.08L281.60 6.08L281.60 6.08Q281.78 6.47 282.18 7.34L282.18 7.34L282.18 7.34Q282.58 8.22 282.95 9.07L282.95 9.07L282.95 9.07Q284.13 11.77 284.35 11.77L284.35 11.77L284.35 11.77Q284.42 11.77 285.16 10.08L285.16 10.08L285.16 10.08Q285.89 8.39 286.61 6.54L286.61 6.54L286.61 6.54Q287.32 4.69 287.32 4.35L287.32 4.35L287.32 4.35Q287.32 4.13 287.16 4.01L287.16 4.01L287.16 4.01Q287.00 3.89 286.82 3.87L286.82 3.87L286.82 3.87Q286.64 3.85 286.48 3.80L286.48 3.80L286.48 3.80Q286.31 3.75 286.31 3.64L286.31 3.64L286.31 3.64Q286.31 3.54 286.36 3.52L286.36 3.52L286.36 3.52Q286.41 3.50 286.61 3.50L286.61 3.50L286.61 3.50Q286.65 3.50 286.93 3.51L286.93 3.51L286.93 3.51Q287.21 3.51 287.49 3.51L287.49 3.51L287.49 3.51Q287.74 3.51 288.06 3.50L288.06 3.50L288.06 3.50Q288.37 3.49 288.74 3.49L288.74 3.49L288.74 3.49Q289.00 3.49 289.00 3.68L289.00 3.68L289.00 3.68Q289.00 3.78 288.91 3.85L288.91 3.85L288.91 3.85Q288.82 3.92 288.69 3.98L288.69 3.98L288.69 3.98Q288.57 4.03 288.40 4.21L288.40 4.21L288.40 4.21Q288.23 4.40 288.11 4.69L288.11 4.69L284.98 11.80L284.98 11.80Q284.65 12.56 284.33 13.34L284.33 13.34L284.33 13.34Q284.17 13.72 284.13 13.79L284.13 13.79L284.13 13.79Q284.09 13.86 284.02 13.86L284.02 13.86L284.02 13.86Q283.77 13.86 283.39 12.89L283.39 12.89L283.39 12.89Q283.02 11.98 281.95 9.65L281.95 9.65L281.95 9.65Q281.41 8.48 280.98 7.50L280.98 7.50L280.98 7.50Q280.55 6.52 280.36 6.06L280.36 6.06L280.36 6.06Q280.17 5.60 280.01 5.24L280.01 5.24L280.01 5.24Q279.85 4.87 279.76 4.72L279.76 4.72L279.76 4.72Q279.68 4.56 279.57 4.44L279.57 4.44L279.57 4.44Q279.33 4.17 279.07 4.06L279.07 4.06L279.07 4.06Q278.81 3.95 278.65 3.96L278.65 3.96L278.65 3.96Q278.49 3.96 278.38 3.91L278.38 3.91L278.38 3.91Q278.26 3.86 278.26 3.70ZM296.56 3.65L296.56 3.65L296.56 3.65Q296.56 3.46 296.95 3.46L296.95 3.46L296.95 3.46Q297.01 3.46 297.14 3.47L297.14 3.47L297.14 3.47Q297.26 3.49 297.33 3.49L297.33 3.49L297.33 3.49Q297.37 3.49 298.65 3.52L298.65 3.52L298.65 3.52Q299.92 3.56 300.75 3.56L300.75 3.56L300.75 3.56Q301.04 3.56 302.20 3.53L302.20 3.53L302.20 3.53Q303.35 3.50 303.55 3.50L303.55 3.50L303.55 3.50Q303.81 3.50 303.81 3.82L303.81 3.82L303.81 3.82Q303.81 3.91 303.73 4.38L303.73 4.38L303.73 4.38Q303.65 4.84 303.65 5.25L303.65 5.25L303.65 5.25Q303.65 5.38 303.58 5.47L303.58 5.47L303.58 5.47Q303.51 5.56 303.42 5.56L303.42 5.56L303.42 5.56Q303.21 5.56 303.21 5.26L303.21 5.26L303.21 5.26Q303.21 4.89 302.97 4.58L302.97 4.58L302.97 4.58Q302.74 4.27 302.39 4.26L302.39 4.26L302.39 4.26Q301.13 4.16 300.45 4.16L300.45 4.16L300.09 4.16L300.09 4.16Q299.36 4.16 299.24 4.26L299.24 4.26L299.24 4.26Q299.12 4.37 299.10 5.01L299.10 5.01L299.10 5.01Q299.04 6.02 299.04 7.35L299.04 7.35L299.04 7.35Q299.04 8.05 299.31 8.06L299.31 8.06L299.66 8.06L300.24 8.06L300.68 8.06L300.68 8.06Q301.52 8.06 301.80 8.01L301.80 8.01L301.80 8.01Q302.08 7.95 302.30 7.80L302.30 7.80L302.30 7.80Q302.57 7.62 302.62 7.28L302.62 7.28L302.62 7.28Q302.67 7.04 302.82 7.04L302.82 7.04L302.82 7.04Q302.95 7.04 302.97 7.08L302.97 7.08L302.97 7.08Q303.00 7.13 303.00 7.27L303.00 7.27L303.00 7.27Q303.00 7.36 302.95 7.91L302.95 7.91L302.95 7.91Q302.89 8.46 302.89 8.74L302.89 8.74L302.89 8.74Q302.89 9.00 302.91 9.24L302.91 9.24L302.91 9.24Q302.93 9.48 302.93 9.59L302.93 9.59L302.93 9.59Q302.93 9.94 302.83 9.94L302.83 9.94L302.83 9.94Q302.62 9.94 302.53 9.60L302.53 9.60L302.53 9.60Q302.33 9.02 302.18 8.92L302.18 8.92L302.18 8.92Q301.88 8.72 300.83 8.72L300.83 8.72L300.83 8.72Q300.41 8.72 300.15 8.72L300.15 8.72L300.15 8.72Q299.89 8.72 299.82 8.71L299.82 8.71L299.82 8.71Q299.74 8.71 299.69 8.71L299.69 8.71L299.69 8.71Q299.64 8.71 299.60 8.71L299.60 8.71L299.60 8.71Q299.03 8.71 299.03 8.97L299.03 8.97L299.03 8.97Q299.03 9.38 299.01 9.99L299.01 9.99L299.01 9.99Q299.00 10.60 299.00 10.99L299.00 10.99L299.00 11.55L299.00 11.55Q299.00 12.56 299.33 12.66L299.33 12.66L299.33 12.66Q299.68 12.77 299.94 12.77L299.94 12.77L299.94 12.77Q300.99 12.77 301.78 12.67L301.78 12.67L301.78 12.67Q302.57 12.57 302.97 12.42L302.97 12.42L302.97 12.42Q303.37 12.28 303.63 12.10L303.63 12.10L303.63 12.10Q303.90 11.93 303.98 11.78L303.98 11.78L303.98 11.78Q304.05 11.63 304.13 11.54L304.13 11.54L304.13 11.54Q304.21 11.44 304.29 11.44L304.29 11.44L304.29 11.44Q304.46 11.44 304.46 11.68L304.46 11.68L304.46 11.68Q304.46 12.28 303.86 12.89L303.86 12.89L303.86 12.89Q303.25 13.51 302.81 13.51L302.81 13.51L302.81 13.51Q301.80 13.51 300.53 13.44L300.53 13.44L300.53 13.44Q299.26 13.37 298.96 13.37L298.96 13.37L298.96 13.37Q298.56 13.37 297.98 13.43L297.98 13.43L297.98 13.43Q297.39 13.50 297.05 13.50L297.05 13.50L297.05 13.50Q296.76 13.50 296.76 13.36L296.76 13.36L296.76 13.36Q296.76 13.23 296.76 13.19L296.76 13.19L296.76 13.19Q296.76 13.15 296.80 13.12L296.80 13.12L296.80 13.12Q296.84 13.09 296.89 13.08L296.89 13.08L296.89 13.08Q296.94 13.08 297.07 13.03L297.07 13.03L297.07 13.03Q297.21 12.99 297.36 12.92L297.36 12.92L297.36 12.92Q297.70 12.75 297.80 12.26L297.80 12.26L297.80 12.26Q297.91 11.77 297.91 10.21L297.91 10.21L297.91 8.47L297.91 8.47Q297.91 8.09 297.93 7.29L297.93 7.29L297.93 7.29Q297.95 6.50 297.95 6.05L297.95 6.05L297.95 6.05Q297.95 5.67 297.92 4.77L297.92 4.77L297.92 4.77Q297.91 4.37 297.57 4.14L297.57 4.14L297.57 4.14Q297.23 3.92 296.79 3.91L296.79 3.91L296.79 3.91Q296.56 3.91 296.56 3.65ZM322.00 3.71L322.00 3.71L322.00 3.71Q322.00 3.50 322.39 3.50L322.39 3.50L322.39 3.50Q322.53 3.50 323.04 3.53L323.04 3.53L323.04 3.53Q323.54 3.56 323.97 3.56L323.97 3.56L323.97 3.56Q324.24 3.56 324.49 3.54L324.49 3.54L324.49 3.54Q324.73 3.53 325.21 3.53L325.21 3.53L325.21 3.53Q325.58 3.53 325.58 3.72L325.58 3.72L325.58 3.72Q325.58 3.84 324.94 4.10L324.94 4.10L324.94 4.10Q324.49 4.28 324.49 5.71L324.49 5.71L324.49 5.71Q324.49 7.60 324.47 9.05L324.47 9.05L324.47 9.05Q324.45 10.50 324.45 10.89L324.45 10.89L324.45 10.89Q324.45 12.07 324.80 12.59L324.80 12.59L324.80 12.59Q325.11 13.02 325.47 13.02L325.47 13.02L325.47 13.02Q325.50 13.02 325.61 13.03L325.61 13.03L325.61 13.03Q325.72 13.03 325.75 13.03L325.75 13.03L325.75 13.03Q325.85 13.03 325.95 13.08L325.95 13.08L325.95 13.08Q326.05 13.13 326.05 13.19L326.05 13.19L326.05 13.19Q326.05 13.34 325.97 13.39L325.97 13.39L325.97 13.39Q325.89 13.44 325.70 13.44L325.70 13.44L325.70 13.44Q325.28 13.44 324.92 13.41L324.92 13.41L324.92 13.41Q324.56 13.38 324.37 13.38L324.37 13.38L324.37 13.38Q323.97 13.38 323.51 13.42L323.51 13.42L323.51 13.42Q323.05 13.45 322.83 13.45L322.83 13.45L322.83 13.45Q322.20 13.45 322.20 13.24L322.20 13.24L322.20 13.24Q322.20 13.12 322.33 13.07L322.33 13.07L322.33 13.07Q322.46 13.02 322.63 13.00L322.63 13.00L322.63 13.00Q322.80 12.98 322.98 12.82L322.98 12.82L322.98 12.82Q323.16 12.66 323.23 12.35L323.23 12.35L323.23 12.35Q323.26 12.25 323.32 10.76L323.32 10.76L323.32 10.76Q323.39 9.27 323.39 8.61L323.39 8.61L323.39 7.81L323.39 7.81Q323.39 7.63 323.39 7.12L323.39 7.12L323.39 7.12Q323.40 6.61 323.40 6.30L323.40 6.30L323.40 5.66L323.40 5.66Q323.40 5.04 323.34 4.63L323.34 4.63L323.34 4.63Q323.30 4.30 322.97 4.12L322.97 4.12L322.97 4.12Q322.64 3.93 322.29 3.92L322.29 3.92L322.29 3.92Q322.00 3.91 322.00 3.71ZM333.59 5.32L333.59 5.32L333.59 5.32Q333.59 4.76 333.73 3.88L333.73 3.88L333.73 3.88Q333.73 3.85 333.74 3.78L333.74 3.78L333.74 3.78Q333.75 3.71 333.75 3.69L333.75 3.69L333.75 3.69Q333.76 3.67 333.77 3.62L333.77 3.62L333.77 3.62Q333.77 3.57 333.79 3.55L333.79 3.55L333.79 3.55Q333.80 3.53 333.82 3.49L333.82 3.49L333.82 3.49Q333.84 3.46 333.87 3.44L333.87 3.44L333.87 3.44Q333.90 3.43 333.94 3.42L333.94 3.42L333.94 3.42Q333.98 3.40 334.04 3.39L334.04 3.39L334.04 3.39Q334.10 3.39 334.17 3.39L334.17 3.39L334.17 3.39Q334.39 3.39 335.35 3.44L335.35 3.44L335.35 3.44Q336.31 3.50 338.11 3.50L338.11 3.50L338.11 3.50Q341.19 3.50 342.43 3.43L342.43 3.43L342.43 3.43Q342.44 3.43 342.48 3.42L342.48 3.42L342.48 3.42Q342.51 3.42 342.52 3.42L342.52 3.42L342.52 3.42Q342.68 3.42 342.73 3.50L342.73 3.50L342.73 3.50Q342.79 3.58 342.79 3.65L342.79 3.65L342.79 3.65Q342.79 3.75 342.83 4.24L342.83 4.24L342.83 4.24Q342.87 4.73 342.87 4.79L342.87 4.79L342.87 4.79Q342.87 5.14 342.83 5.23L342.83 5.23L342.83 5.23Q342.79 5.32 342.65 5.32L342.65 5.32L342.65 5.32Q342.54 5.32 342.50 5.15L342.50 5.15L342.50 5.15Q342.38 4.75 342.30 4.60L342.30 4.60L342.30 4.60Q342.22 4.45 341.94 4.34L341.94 4.34L341.94 4.34Q341.66 4.23 341.08 4.23L341.08 4.23L339.26 4.23L339.26 4.23Q338.93 4.23 338.85 4.36L338.85 4.36L338.85 4.36Q338.77 4.49 338.77 5.12L338.77 5.12L338.77 5.81L338.77 5.81Q338.77 7.69 338.75 9.11L338.75 9.11L338.75 9.11Q338.73 10.54 338.73 10.93L338.73 10.93L338.73 10.93Q338.73 11.13 338.72 11.43L338.72 11.43L338.72 11.43Q338.72 11.73 338.72 11.84L338.72 11.84L338.72 11.84Q338.72 12.45 338.91 12.64L338.91 12.64L338.91 12.64Q339.09 12.81 339.32 12.90L339.32 12.90L339.32 12.90Q339.54 12.99 339.70 13.01L339.70 13.01L339.70 13.01Q339.86 13.02 339.98 13.08L339.98 13.08L339.98 13.08Q340.09 13.13 340.09 13.26L340.09 13.26L340.09 13.26Q340.09 13.41 340.02 13.45L340.02 13.45L340.02 13.45Q339.95 13.50 339.75 13.50L339.75 13.50L339.75 13.50Q339.58 13.50 339.01 13.44L339.01 13.44L339.01 13.44Q338.44 13.38 338.20 13.38L338.20 13.38L338.20 13.38Q338.03 13.38 337.52 13.43L337.52 13.43L337.52 13.43Q337.01 13.48 336.77 13.48L336.77 13.48L336.77 13.48Q336.25 13.48 336.25 13.26L336.25 13.26L336.25 13.26Q336.25 13.12 336.34 13.07L336.34 13.07L336.34 13.07Q336.42 13.02 336.67 12.98L336.67 12.98L336.67 12.98Q336.91 12.95 336.98 12.94L336.98 12.94L336.98 12.94Q337.46 12.82 337.51 12.38L337.51 12.38L337.51 12.38Q337.65 11.14 337.65 7.08L337.65 7.08L337.64 4.58L337.64 4.58Q337.64 4.31 337.48 4.25L337.48 4.25L337.48 4.25Q337.33 4.19 336.57 4.19L336.57 4.19L336.57 4.19Q335.59 4.19 335.10 4.24L335.10 4.24L335.10 4.24Q334.60 4.30 334.52 4.35L334.52 4.35L334.52 4.35Q334.43 4.40 334.32 4.54L334.32 4.54L334.32 4.54Q334.19 4.70 334.12 4.91L334.12 4.91L334.12 4.91Q334.04 5.11 334.02 5.24L334.02 5.24L334.02 5.24Q334.00 5.38 333.94 5.47L333.94 5.47L333.94 5.47Q333.87 5.56 333.75 5.56L333.75 5.56L333.75 5.56Q333.59 5.56 333.59 5.32ZM351.11 12.56L351.11 12.56L351.11 12.56Q351.11 12.46 351.51 12.11L351.51 12.11L351.51 12.11Q351.57 12.07 351.69 11.91L351.69 11.91L351.69 11.91Q351.81 11.76 351.92 11.67L351.92 11.67L351.92 11.67Q352.03 11.58 352.14 11.58L352.14 11.58L352.14 11.58Q352.20 11.58 352.24 11.61L352.24 11.61L352.24 11.61Q352.28 11.63 352.37 11.72L352.37 11.72L352.37 11.72Q352.45 11.82 352.46 11.83L352.46 11.83L352.46 11.83Q352.62 12.00 352.78 12.12L352.78 12.12L352.78 12.12Q352.94 12.25 353.02 12.31L353.02 12.31L353.02 12.31Q353.09 12.36 353.15 12.42L353.15 12.42L353.15 12.42Q353.21 12.49 353.21 12.57L353.21 12.57L353.21 12.57Q353.21 12.68 353.12 12.78L353.12 12.78L353.12 12.78Q353.02 12.88 352.87 12.98L352.87 12.98L352.87 12.98Q352.72 13.09 352.67 13.13L352.67 13.13L352.67 13.13Q352.62 13.19 352.52 13.33L352.52 13.33L352.52 13.33Q352.42 13.47 352.33 13.54L352.33 13.54L352.33 13.54Q352.24 13.62 352.16 13.62L352.16 13.62L352.16 13.62Q352.07 13.62 351.88 13.46L351.88 13.46L351.88 13.46Q351.68 13.30 351.57 13.15L351.57 13.15L351.57 13.15Q351.53 13.09 351.40 12.98L351.40 12.98L351.40 12.98Q351.27 12.88 351.19 12.77L351.19 12.77L351.19 12.77Q351.11 12.67 351.11 12.56ZM351.53 4.33L351.53 4.33L351.53 4.33Q351.53 3.79 352.21 3.79L352.21 3.79L352.21 3.79Q352.55 3.79 352.70 3.89L352.70 3.89L352.70 3.89Q352.86 3.99 352.86 4.24L352.86 4.24L352.86 4.24Q352.86 4.28 352.85 4.34L352.85 4.34L352.85 4.34Q352.84 4.40 352.82 4.53L352.82 4.53L352.82 4.53Q352.80 4.66 352.79 4.79L352.79 4.79L352.79 4.79Q352.73 5.26 352.62 7.05L352.62 7.05L352.62 7.05Q352.51 8.83 352.30 10.50L352.30 10.50L352.30 10.50Q352.27 10.65 352.10 10.65L352.10 10.65L352.10 10.65Q351.93 10.65 351.93 10.53L351.93 10.53L351.93 10.53Q351.81 9.09 351.75 8.24L351.75 8.24L351.75 8.24Q351.69 7.39 351.69 7.18L351.69 7.18L351.69 7.18Q351.68 6.97 351.67 6.77L351.67 6.77L351.67 6.77Q351.67 6.57 351.65 6.34L351.65 6.34L351.65 6.34Q351.53 4.58 351.53 4.33ZM361.97 12.56L361.97 12.56L361.97 12.56Q361.97 12.46 362.38 12.11L362.38 12.11L362.38 12.11Q362.43 12.07 362.55 11.91L362.55 11.91L362.55 11.91Q362.67 11.76 362.78 11.67L362.78 11.67L362.78 11.67Q362.89 11.58 363.01 11.58L363.01 11.58L363.01 11.58Q363.06 11.58 363.10 11.61L363.10 11.61L363.10 11.61Q363.15 11.63 363.23 11.72L363.23 11.72L363.23 11.72Q363.31 11.82 363.33 11.83L363.33 11.83L363.33 11.83Q363.48 12.00 363.64 12.12L363.64 12.12L363.64 12.12Q363.80 12.25 363.88 12.31L363.88 12.31L363.88 12.31Q363.96 12.36 364.01 12.42L364.01 12.42L364.01 12.42Q364.07 12.49 364.07 12.57L364.07 12.57L364.07 12.57Q364.07 12.68 363.98 12.78L363.98 12.78L363.98 12.78Q363.89 12.88 363.73 12.98L363.73 12.98L363.73 12.98Q363.58 13.09 363.54 13.13L363.54 13.13L363.54 13.13Q363.48 13.19 363.38 13.33L363.38 13.33L363.38 13.33Q363.29 13.47 363.20 13.54L363.20 13.54L363.20 13.54Q363.10 13.62 363.02 13.62L363.02 13.62L363.02 13.62Q362.94 13.62 362.74 13.46L362.74 13.46L362.74 13.46Q362.54 13.30 362.43 13.15L362.43 13.15L362.43 13.15Q362.39 13.09 362.26 12.98L362.26 12.98L362.26 12.98Q362.14 12.88 362.05 12.77L362.05 12.77L362.05 12.77Q361.97 12.67 361.97 12.56ZM362.39 4.33L362.39 4.33L362.39 4.33Q362.39 3.79 363.08 3.79L363.08 3.79L363.08 3.79Q363.41 3.79 363.57 3.89L363.57 3.89L363.57 3.89Q363.72 3.99 363.72 4.24L363.72 4.24L363.72 4.24Q363.72 4.28 363.71 4.34L363.71 4.34L363.71 4.34Q363.71 4.40 363.69 4.53L363.69 4.53L363.69 4.53Q363.66 4.66 363.65 4.79L363.65 4.79L363.65 4.79Q363.59 5.26 363.48 7.05L363.48 7.05L363.48 7.05Q363.37 8.83 363.16 10.50L363.16 10.50L363.16 10.50Q363.13 10.65 362.96 10.65L362.96 10.65L362.96 10.65Q362.80 10.65 362.80 10.53L362.80 10.53L362.80 10.53Q362.67 9.09 362.61 8.24L362.61 8.24L362.61 8.24Q362.56 7.39 362.55 7.18L362.55 7.18L362.55 7.18Q362.54 6.97 362.54 6.77L362.54 6.77L362.54 6.77Q362.53 6.57 362.52 6.34L362.52 6.34L362.52 6.34Q362.39 4.58 362.39 4.33Z"></path></g></svg>